<?xml version="1.0" standalone="no"?>
<!DOCTYPE svg PUBLIC "-//W3C//DTD SVG 1.1//EN" "http://www.w3.org/Graphics/SVG/1.1/DTD/svg11.dtd" >
<!--
2013-9-30: Created.
-->
<svg>
<metadata>
Created by iconfont
</metadata>
<defs>

<font id="iconfont" horiz-adv-x="1024" >
  <font-face
    font-family="iconfont"
    font-weight="500"
    font-stretch="normal"
    units-per-em="1024"
    ascent="896"
    descent="-128"
  />
    <missing-glyph />
    
    <glyph glyph-name="tupian" unicode="&#59007;" d="M961.216-28.992l0 656.672c0 119.392-102.88 119.392-119.392 119.392l-656.704 0c-16.48 0-119.392 0-119.392-119.392l0-656.672c0-119.392 119.392-119.392 119.392-119.392l656.704 0c34.432 0 58.688 10.048 76.128 24.224 1.12 0.832 2.24 1.664 3.296 2.56 4 3.488 7.648 7.232 10.88 11.104 0.928 1.12 1.696 2.304 2.56 3.488C961.024-72.544 961.216-28.992 961.216-28.992zM188 682.336l645.888 0c16.256 0 58.72 0 58.72-58.72l0-645.824c0 0-0.16-33.888-26.048-50.144-43.072 45.216-161.344 169.216-191.232 199.104-22.24 22.24-45.216 27.264-59.168 26.528-30.08-0.416-49.536-19.296-50.912-20.928l-61.888-53.92c-12.544-11.904-22.976-1.504-28 3.552-37.824 37.856-111.136 103.264-120.32 111.424-6.08 6.08-27.52 25.12-58.464 25.856-16.192 0.8-40.704-4.32-65.344-28.96-22.944-22.944-66.944-63.52-101.952-95.424l0 528.736C129.312 682.336 171.776 682.336 188 682.336zM129.312-20.032l0 28.512c26.848 24.224 110.784 100.16 147.2 136.608 4.704 4.672 11.2 10.976 18.336 10.24 7.52-0.032 14.4-6.592 14.464-6.592 0 0 0 0 0 0l2.4-2.336c0.8-0.704 80.224-71.392 118.432-109.632 23.296-23.328 47.168-26.784 62.048-27.776 32.928 0.416 54.752 22.432 54.912 22.816l61.792 53.792c6.368 6.016 12.32 4.8 21.216-4.064 23.104-23.136 103.008-106.656 156.224-162.4-139.264 0.064-540.96 0.256-594.304 0.256C127.328-80.672 129.312-20.032 129.312-20.032zM662.688 261.536c83.584 0 151.584 68.096 151.584 151.776s-68 151.776-151.584 151.776-151.584-68.096-151.584-151.776S579.136 261.536 662.688 261.536zM662.688 501.088c48.288 0 87.584-39.36 87.584-87.776s-39.296-87.776-87.584-87.776-87.584 39.36-87.584 87.776S614.4 501.088 662.688 501.088z"  horiz-adv-x="1024" />

    
    <glyph glyph-name="dianhua" unicode="&#58921;" d="M89.472 588.832c0 0 75.008 159.424 201.792 0 126.528-159.616 0-206.4 0-206.4S206.912 302.624 272.448 250.976c65.664-51.456 225.28-192.256 225.28-192.256s63.232-84.288 131.2-23.36c84.48 70.144 117.312 81.984 182.912 32.768 114.496-85.376 150.272-171.264-23.232-239.232-192.384-93.824-534.784 229.888-534.784 229.888S-84.032 382.432 89.472 588.832zM525.76 506.336c0 0-63.232-6.72-51.712 59.2C479.36 595.488 530.368 605.344 577.28 591.072c47.168-14.016 222.912-91.392 230.016-288.512 0 0-12.992-55.296-54.208-44.352-44.288 11.776-32.64 95.616-35.136 111.936C715.712 386.528 654.848 513.312 525.76 506.336zM647.616 677.536c0 0-77.376-8.064-63.104 72.256 6.336 36.864 68.928 48.896 126.528 31.68 57.408-17.28 272.704-112 281.216-353.152 0 0-18.432-75.264-65.792-54.72-41.408 18.24-43.52 120-46.272 140.096C877.056 533.792 805.888 686.176 647.616 677.536z"  horiz-adv-x="1024" />

    
    <glyph glyph-name="qq" unicode="&#58884;" d="M154.283179 351.406394q-4.575857 10.847661-4.575857 29.727071 0 11.423643 6.271804 27.999125t13.727571 25.727196q-0.575982 12.575607 4.287866 30.271054t12.863598 24.575232q0 79.421518 52.862348 164.858848t124.284116 119.708259q79.421518 37.726821 185.146214 37.726821 75.997625 0 151.99525-31.423018 27.999125-11.999625 51.422393-27.423143t40.574732-31.999 31.423018-38.846786 23.99925-42.270679 18.55942-48.286491 14.559545-51.134402 12.575607-55.99825l0.575982-2.847911q31.423018-47.422518 31.423018-85.725321 0-7.99975-5.151839-22.847286t-5.151839-21.727321q0-0.575982 0.863973-2.015937t2.015937-2.847911 1.151964-2.015937q43.998625-65.149964 68.861848-122.55617t24.863223-119.132277q0-24.575232-11.135652-57.150214t-31.711009-32.574982q-5.151839 0-11.135652 4.287866t-10.847661 10.015687-10.847661 14.847536-9.151714 15.135527-7.711759 14.847536-5.151839 10.015687q-0.575982 0.575982-1.727946 0.575982l-2.847911-2.271929q-33.726946-87.99725-75.421643-127.420018 11.423643-11.423643 35.134902-22.015312t39.422768-23.711259 20.287366-37.150839q-1.151964-2.271929-2.271929-9.151714t-3.999875-10.271679q-36.574857-55.422268-172.570607-55.422268-30.271054 0-63.134027 5.151839t-55.99825 11.423643-59.710134 17.151464q-8.575732 2.847911-13.151589 3.999875-7.99975 2.271929-26.271179 2.55992t-22.847286 0.863973q-23.423268-25.727196-72.861723-37.150839t-96.284991-11.423643q-19.999375 0-39.422768 0.863973t-53.150339 5.151839-57.726196 11.711634-42.55867 22.847286-18.55942 36.574857q0 22.847286 5.727821 34.014937t23.423268 27.711134q6.271804 1.151964 23.135277 7.423768t28.287116 6.847786q2.271929 0 7.99975 1.151964 1.151964 1.151964 1.151964 2.271929l-1.151964 1.727946q-27.423143 6.271804-61.726071 60.286116t-41.726696 89.437205l-2.847911 1.727946q-2.271929 0-6.847786-11.423643-10.271679-23.423268-31.135027-42.55867t-44.286616-21.43933l-0.575982 0q-2.271929 0-3.423893 2.55992t-2.847911 3.135902q-13.151589 30.847036-13.151589 57.150214 0 157.147089 143.9955 266.263679z"  horiz-adv-x="1024" />

    
    <glyph glyph-name="jianshao" unicode="&#58954;" d="M511.705799 747.978894c-247.296269 0-447.724091-200.449311-447.724091-447.724091 0-247.254314 200.434985-447.724091 447.724091-447.724091 247.26864 0 447.724091 200.469777 447.724091 447.724091C959.429891 547.529583 758.973416 747.978894 511.705799 747.978894zM738.603483 252.285279l-323.620585-0.004093L286.94171 252.281185c-9.625218 0-17.432021 7.813966-17.439184 17.439184l0 61.054541c0 9.639544 7.806803 17.446347 17.446347 17.446347L398.151557 348.221258l0 0.00307 340.451926 0c8.450463 0 15.298428-7.809873 15.291265-17.442254l0.007163-61.050448C753.895771 260.092082 747.046782 252.285279 738.603483 252.285279z"  horiz-adv-x="1024" />

    
    <glyph glyph-name="haibao" unicode="&#58930;" d="M315.269895 590.870694c12.508895 0 24.424272-2.39249 35.744086-7.211239 11.320836-4.78498 21.126156-11.344373 29.471219-19.751856 8.345062-8.372691 14.889105-18.266016 19.647479-29.610388 4.776793-11.379165 7.15598-23.666002 7.15598-36.821627 0-12.576433-2.379187-24.426319-7.15598-35.480073-4.758374-11.089569-11.302417-20.802792-19.647479-29.210275-8.345062-8.371668-18.151405-14.9679-29.471219-19.751856-11.319813-4.783956-23.235191-7.175423-35.744086-7.175423-12.492522 0-24.406876 2.391467-35.726689 7.175423-11.319813 4.783956-21.143553 11.380188-29.489638 19.751856-8.327666 8.407484-14.889105 18.120706-19.647479 29.210275-4.759397 11.053754-7.139607 22.904663-7.139607 35.480073 0 13.155624 2.38021 25.442462 7.139607 36.821627 4.757351 11.343349 11.319813 21.237697 19.647479 29.610388 8.346085 8.407484 18.169825 14.966876 29.489638 19.751856C290.863019 588.479227 302.777373 590.870694 315.269895 590.870694L315.269895 590.870694zM906.663106 748.921359c14.295588 0 26.66122-5.218862 37.0795-15.72924 10.417257-10.473539 15.626909-22.578228 15.626909-36.349883L959.369515-97.067364c0-13.772678-5.210675-25.877367-15.626909-36.350906-10.419304-10.473539-22.784936-15.728216-37.0795-15.728216L117.83729-149.146487c-14.276145 0-26.497491 5.254677-36.627199 15.728216-10.112312 10.473539-15.177678 22.578228-15.177678 36.350906L66.032414 696.842237c0 13.771655 5.065366 25.876344 15.177678 36.349883 10.129708 10.510378 22.351054 15.72924 36.627199 15.72924L906.663106 748.921359 906.663106 748.921359zM879.861694 616.02356c0 14.9679-5.066389 27.688619-15.178701 38.162158-10.130731 10.473539-22.641673 15.692401-37.527708 15.692401L197.348182 669.878119c-14.889105 0-27.380604-5.218862-37.511335-15.692401-10.130731-10.473539-15.196097-23.194258-15.196097-38.162158l0-316.1351c0-17.36039 4.326539-33.813107 12.960173-49.39806 8.634658-15.547091 20.999266-29.499871 37.078477-41.74987 16.077164-12.286838 35.437094-21.998013 58.059324-29.175483 22.64065-7.210215 47.947012-11.089569 75.940576-11.7056 39.890522-0.577145 72.209602 4.820796 96.92347 16.163121 24.711821 11.383258 46.163389 25.76992 64.313771 43.128263 18.168802 17.361413 35.150568 36.204573 50.92074 56.574506 15.791661 20.36584 34.556027 39.501666 56.296167 57.478086 21.719674 17.97642 48.523133 33.089629 80.392982 45.338604 31.870872 12.284791 73.109088 18.736736 123.724883 19.315928 8.939603 0.61603 14.150278 0.760317 15.627932 0.434905 1.497097-0.289596 3.425006-0.434905 5.805216-0.434905 2.396583 0 7.30129-0.144286 14.743796-0.434905 7.442506-0.326435 21.595854-0.144286 42.433438 0.434905L879.861694 616.02356 879.861694 616.02356zM879.861694 616.02356"  horiz-adv-x="1024" />

    
    <glyph glyph-name="xinfeng" unicode="&#58929;" d="M925.472-83.008 97.344-83.008c-53.536 0-97.12 43.52-97.12 97.024L0.224 586.976C0.256 640.48 43.808 684 97.344 684l828.096 0c53.568 0 97.12-43.52 97.12-97.024l0-572.928C1022.592-39.456 979.04-83.008 925.472-83.008zM97.344 620c-18.24 0-33.12-14.816-33.12-33.024l0-572.928c0-18.208 14.848-33.024 33.12-33.024l828.096 0c18.24 0 33.12 14.816 33.12 33.024L958.56 586.976C958.592 605.184 943.712 620 925.472 620L97.344 620zM512 215.968c-7.232 0-14.496 2.432-20.48 7.424L33.6 605.184C20.032 616.48 18.208 636.672 29.536 650.24c11.328 13.6 31.52 15.36 45.088 4.064l457.888-381.792c13.568-11.328 15.392-31.488 4.064-45.088C530.24 219.872 521.152 215.968 512 215.968zM512 215.968c-8.896 0-17.728 3.68-24.064 10.88-11.648 13.28-10.336 33.504 2.944 45.184L932.192 659.488c13.312 11.616 33.504 10.336 45.152-2.944 11.68-13.28 10.368-33.504-2.912-45.152L533.12 223.936C527.04 218.592 519.52 215.968 512 215.968zM975.552-52.672c-7.904 0-15.808 2.912-22.016 8.768l-302.56 286.656c-12.832 12.16-13.376 32.384-1.216 45.248 12.16 12.864 32.416 13.344 45.216 1.216l302.56-286.656c12.832-12.16 13.376-32.416 1.216-45.216C992.512-49.312 984.032-52.672 975.552-52.672zM56.512-52.672c-8.48 0-16.928 3.328-23.232 9.984-12.16 12.8-11.616 33.056 1.216 45.216l302.56 286.656c12.832 12.096 33.088 11.616 45.248-1.216 12.16-12.832 11.616-33.088-1.216-45.248l-302.56-286.656C72.32-49.76 64.416-52.672 56.512-52.672z"  horiz-adv-x="1024" />

    
    <glyph glyph-name="qingkong" unicode="&#58882;" d="M741.442646 580.411481l0 99.590206c0 36.516682-22.407336 66.393129-49.795103 66.393129L331.215564 746.394816c-27.387767 0-49.795103-29.877471-49.795103-66.393129l0.090051 0 0-99.590206L79.877235 580.411481l0-66.393129 68.765153 0 0-599.913259c0-34.895765 28.294416-63.504336 63.074547-64.014966l0-0.007163 598.34453 0 0 66.393129L212.664517-83.523907 212.664517 514.018352 810.206776 514.018352l0-663.936411c35.211966 0 64.022129 28.810163 64.022129 64.022129l0 599.913259 68.765153 0 0 66.393129L741.442646 580.410458zM677.419494 580.411481 345.4518 580.411481l0 99.590206 331.967694 0L677.419494 580.411481zM478.239082 414.427122l66.393129 0 0-398.361847-66.393129 0 0 398.361847ZM312.254723 414.427122l66.393129 0 0-398.361847-66.393129 0 0 398.361847ZM644.223441 414.427122l66.393129 0 0-398.361847-66.393129 0 0 398.361847Z"  horiz-adv-x="1024" />

    
    <glyph glyph-name="sousuo" unicode="&#59061;" d="M954.816826-16.849504 754.565013 183.398216c54.980195 67.645656 87.942935 153.912415 87.942935 247.87546 0 217.211067-176.089507 393.292388-393.309784 393.292388-217.210044 0-393.304667-176.082344-393.304667-393.292388 0-217.201857 176.087461-393.287271 393.304667-393.287271 93.968162 0 180.240037 32.961716 247.891833 87.941911l200.252837-200.24772c15.866363-15.872502 41.602513-15.872502 57.473993 0C970.689329-58.446901 970.689329-32.715867 954.816826-16.849504L954.816826-16.849504 954.816826-16.849504zM138.69841 431.273676c0 171.485653 139.021264 310.494637 310.500776 310.494637 171.488723 0 310.509986-139.008984 310.509986-310.494637 0-81.662905-31.553647-155.948795-83.10065-211.376175-6.471388-6.939039-8.947789-9.800203-16.016789-16.022928-55.432497-51.548026-129.724527-83.0853-211.392548-83.0853C277.719674 120.78825 138.69841 259.794164 138.69841 431.273676L138.69841 431.273676 138.69841 431.273676zM138.69841 431.273676"  horiz-adv-x="1024" />

    
    <glyph glyph-name="denglu" unicode="&#58950;" d="M970.851045-79.287062c-0.012347 0.213423-0.049387 0.426845-0.068789 0.64556l-0.308669 3.09022c0 3.649352-0.45683 7.166417-1.250551 10.55825-21.06535 165.09216-128.3764 302.998501-275.085986 366.489108 84.894612 58.484875 140.62263 156.684011 140.62263 268.000706 0 179.29447-144.485404 324.635329-322.705706 324.635329-178.218538 0-322.693359-145.34615-322.693359-324.635329 0-111.357263 55.759767-209.584619 140.712585-268.064203C184.924597 238.559309 78.393156 102.815416 55.821501-59.992592c-1.733839-4.86639-2.719817-10.085545-2.719817-15.556927l0.41979-4.301967c0-25.557809 20.601464-46.282741 46.005821-46.282741 25.411412 0 46.012876 20.726695 46.012876 46.282741l-0.049387 0.566187 0.936591 0c21.472793 176.886851 166.695476 315.31352 345.974072 324.817003 6.513802-0.395097 13.052297-0.657906 19.652527-0.657906 6.619631 0 13.175765 0.26281 19.696622 0.664962 179.312109-9.484081 324.540083-147.921333 346.01464-324.824059l1.054767 0 0.056442-0.566187c0-25.557809 20.601464-46.282741 46.012876-46.282741s46.012876 20.726695 46.012876 46.282741L970.851045-79.287062 970.851045-79.287062zM511.979892 337.527472c-127.295176 0-230.492989 103.806332-230.492989 231.875827S384.684716 801.28618 511.979892 801.28618c127.302231 0 230.500044-103.811624 230.500044-231.882882C742.474645 441.342623 639.282124 337.527472 511.979892 337.527472L511.979892 337.527472z"  horiz-adv-x="1024" />

    
    <glyph glyph-name="guihuaxiangmu" unicode="&#58935;" d="M224.18541 209.758584l63.96687 0 0 63.361073-63.96687 0L224.18541 209.758584zM224.18541 368.15922l63.96687 0L288.152281 431.521317l-63.96687 0L224.18541 368.15922zM767.831154 431.521317 384.101563 431.521317c-17.689894 0-31.983435-14.192234-31.983435-31.680537 0-17.489326 14.293541-31.68156 31.983435-31.68156l383.730615 0c17.656125 0 31.982412 14.192234 31.982412 31.68156C799.813566 417.32806 785.48728 431.521317 767.831154 431.521317zM895.730103 653.317819l-264.002766 0c-14.994506 45.01831-54.785767 122.512265-151.71026 126.721123L128.269897 780.038942c-35.346019 0-63.965847-28.350698-63.965847-63.361073L64.30405 51.322132c0-35.010375 28.619828-63.361073 63.965847-63.361073l767.460206 0c35.313274 0 63.96687 28.350698 63.96687 63.361073L959.696973 589.922976C959.69595 624.932328 931.042353 653.317819 895.730103 653.317819zM192.201975 716.677868l223.848231 0c103.373369-6.402827 121.867582-37.238113 131.237997-63.36005L128.269897 653.317819C128.269897 688.32717 156.889725 716.677868 192.201975 716.677868zM895.730103 114.716974c0-35.044144-28.619828-63.394842-63.965847-63.394842L192.201975 51.322132c-35.31225 0-63.933101 28.350698-63.933101 63.394842L128.268874 589.922976 831.764256 589.922976c35.346019 0 63.965847-28.351722 63.965847-63.361073L895.730103 114.716974zM767.831154 273.119657 384.101563 273.119657c-17.689894 0-31.983435-14.192234-31.983435-31.680537s14.293541-31.680537 31.983435-31.680537l383.730615 0c17.656125 0 31.982412 14.192234 31.982412 31.680537S785.48728 273.119657 767.831154 273.119657z"  horiz-adv-x="1024" />

    
    <glyph glyph-name="open-copy" unicode="&#58883;" d="M861.169 51.945c0-30.888-25.061-55.839-55.892-55.839h-698.233l97.786 460.819c0 30.859 24.9 55.867 55.731 55.867h642.498c30.832 0 55.787-25.008 55.787-55.867l-97.678-404.981zM218.723 554.71h628.446v54.852c0 30.859-25.060 55.866-55.839 55.866h-335.143v50.628c0 30.807-25.008 55.839-55.839 55.839h-279.357c-30.832 0-55.839-25.032-55.839-55.839v-664.11l97.679 446.873c0 30.858 25.060 55.891 55.892 55.891v0zM218.723 554.71z"  horiz-adv-x="1024" />

    
    <glyph glyph-name="yulan-copy" unicode="&#58898;" d="M509.817 664.101c191.716 0 356.734-112.453 433.957-274.743h75.252c-81.561 201.283-278.653 343.396-509.212 343.396-230.525 0-427.618-142.118-509.172-343.396h75.253c77.223 162.289 242.241 274.743 433.92 274.743zM509.817 114.607c-191.679 0-356.697 112.448-433.919 274.751h-75.253c81.556-201.325 278.649-343.443 509.172-343.443 230.557 0 427.65 142.117 509.212 343.443h-75.252c-77.225-162.303-242.241-274.751-433.957-274.751zM326.678 389.334c0-101.156 81.991-183.153 183.155-183.153 101.156 0 183.152 81.996 183.152 183.153 0 101.162-81.996 183.159-183.152 183.159-101.164 0-183.155-81.998-183.155-183.159zM624.33 389.334c0-63.217-51.274-114.49-114.496-114.49s-114.457 51.273-114.457 114.49c0 63.221 51.234 114.496 114.457 114.496 63.22 0 114.496-51.274 114.496-114.496z"  horiz-adv-x="1024" />

    
    <glyph glyph-name="weixin" unicode="&#58905;" d="M276.743688 864.917253C186.540651 831.958313 104.812048 770.729938 54.361358 687.322508 8.606987 612.132389-11.893734 548.511384 10.231619 462.468776 32.369608 366.948923 99.026894 285.288755 178.527378 231.807888 163.562333 187.731658 158.599331 149.823162 153.241979 102.338332 213.726318 126.02956 236.727901 143.369522 286.778456 170.297878 347.169339 150.71129 428.587568 141.484812 491.973145 143.551953 424.470537 468.056418 695.89773 571.590783 893.269788 566.43908 865.623248 687.322503 796.986424 777.345644 700.75188 831.351838 573.142548 904.2271 414.082616 915.21199 276.743688 864.917253ZM360.220315 632.048171C351.85832 591.244566 297.895893 571.560414 266.378822 598.919615 229.885788 625.028456 240.087502 689.870365 283.035409 702.892622 325.063457 719.348347 372.868378 676.035977 360.220315 632.048171L360.220315 632.048171ZM664.517052 644.192296C664.874055 597.157423 603.140014 567.844143 568.407425 599.785677 532.389618 625.915268 542.599953 689.593066 584.893106 702.826907 622.711803 717.912197 667.444489 685.548051 664.517052 644.192296L664.517052 644.192296ZM1068.665237 494.706572C950.759528 551.936704 796.155145 555.919368 670.146638 494.70657 586.791846 454.214226 530.910016 387.201395 511.412699 294.123702 495.367042 225.642625 511.943042 149.677034 547.738475 89.908221 601.106738 0.221428 671.0012-48.89232 771.252416-67.294669 843.857258-82.25156 934.764331-74.486807 1001.696707-53.896938 1043.898815-70.595443 1090.349546-106.543127 1131.305913-126.439486 1120.797806-90.53707 1109.586126-54.777341 1097.45152-19.382722 1143.316357 13.838029 1185.133568 55.066003 1210.28018 106.974475 1247.669004 179.240938 1249.90803 268.730489 1216.947591 343.070101 1186.342062 413.364134 1136.546388 461.757809 1068.665237 494.706572ZM796.071025 319.714028C784.874375 283.884223 733.365318 273.071009 708.616704 300.423145 681.240669 325.607207 691.88864 378.433086 727.758071 389.649136 767.651159 406.694999 813.548508 360.124399 796.071025 319.714028L796.071025 319.714028ZM1047.444295 314.772705C1034.168173 282.404368 987.769102 274.95152 964.867247 299.985093 953.772668 310.426346 951.073986 326.249453 946.628332 340.260442 952.560216 365.462056 968.652355 391.70825 996.052013 392.843661 1033.972617 398.26185 1067.238973 350.183947 1047.444295 314.772705L1047.444295 314.772705Z"  horiz-adv-x="1242" />

    
    <glyph glyph-name="zhaopian" unicode="&#59034;" d="M865.045 763.618c0 17.542-14.355 31.892-31.89 31.892h-732.821c-17.542 0-31.895-14.35-31.895-31.892v-573.751c0-17.54 14.352-31.895 31.895-31.895h27.23c17.542 0 31.892 14.355 31.892 31.895v481.141c0 17.537 14.352 31.887 31.895 31.887h641.803c17.54 0 31.895 14.352 31.895 31.892v28.83h-0.004zM923.825 641.446h-668.979c-20.54 0-37.19-16.62-37.19-37.152v-594.646c0-20.53 16.65-37.155 37.19-37.155h669.008c20.54 0 37.155 16.62 37.155 37.155v594.645c-0.034 20.533-16.649 37.153-37.184 37.153v0 0zM849.485 83.992h-520.334v185.795l111.525 111.52 185.825-185.83 111.525 111.49 111.495-111.49v-111.485h-0.036zM775.145 381.311c-41.070 0-74.3 33.257-74.3 74.305 0 41.105 33.23 74.335 74.3 74.335 41.105 0 74.34-33.23 74.34-74.335 0-41.047-33.235-74.305-74.34-74.305v0 0z"  horiz-adv-x="1025" />

    
    <glyph glyph-name="tucengguanli" unicode="&#58885;" d="M158.1386784 687.2087584c-8.14739733 0-14.75268587-6.62713173-14.75268587-14.78763413v-458.5138688h-44.2657024c-16.30134613 0-29.51520107 13.256448-29.51520106 29.57963733V731.6109792c0 16.29697813 13.21385493 29.5545184 29.51520106 29.5545184h619.754784c16.29697813 0 29.510832-13.256448 29.510832-29.5545184v-44.4022208H158.1386784z m664.0827392-29.60366507c16.2729504-0.0262112 29.4551328-13.23351253 29.4551328-29.5556096v-44.40003626H261.43259947c-8.1495808 0-14.7548704-6.60310507-14.7548704-14.76360747v-458.5138688H202.40656533c-16.2947936 0-29.506464 13.256448-29.510832 29.55342613V657.60509333h649.32568427z m73.76015253-103.5123488h29.47806827c16.29697813 0 29.50864853-13.256448 29.50864747-29.57963733v-488.0978752c0-16.37015147-13.2116704-29.57963733-29.50864747-29.57963733h-619.75915307c-16.2947936 0-29.506464 13.20948587-29.510832 29.57963733V554.09274453h619.7919168z"  horiz-adv-x="1024" />

    
    <glyph glyph-name="lianxidianhua" unicode="&#59205;" d="M962.921279 117.353561l-96.122778 105.199912c-22.557354 27.705579-67.807541 33.215083-96.055039 11.041588l-28.292657-16.573672c-11.289967-5.554664-33.937641-16.618831-50.850011-16.618831h-17.00269c-5.644983 0-22.602514 5.554664-28.247498 11.064167L391.987652 493.738479c-5.644983 5.532084-11.312547 22.128335-11.312547 33.215082v22.128335c5.667563 11.086748 16.95753 33.215083 22.602514 38.747167l28.270077 27.682999a73.700904 73.700904 0 0 1 0 94.090584l-118.702713 127.305667c-22.625094 27.705579-67.830121 33.215083-96.100198 11.064168L120.667166 776.032811c-11.289967-11.086748-16.95753-33.215083-5.644983-44.27925 11.267387-16.618831 33.915061-16.618831 45.205028-5.554664l96.100198 66.407586h5.667563l118.680133-121.773583v-11.086748l-22.579934-22.150915c-16.95753-22.105755-33.937641-55.343418-39.582624-77.471753l-5.644984-16.618831a100.751665 100.751665 0 0 1 28.270078-88.558501l243.072987-271.185005c16.93495-22.150915 56.494994-38.769746 84.765072-33.192503h16.98011c22.579934 0 56.517574 11.019008 79.120089 27.615259l28.247497 16.618831c5.690143 5.532084 11.312547 0 11.312547 0l96.122778-105.109592v-5.554663l-107.435325-105.177332c-5.644983-10.996428-22.579934-10.996428-28.270077-10.996428l-118.702713 27.660419c-11.335127 0-28.247497 11.064168-39.560044 22.105755L171.539757 493.738479l-22.602513 44.27925-16.957531 71.962249c0 16.573671-16.95753 27.660419-33.91506 27.660419-22.602514-5.532084-33.892481-22.105755-28.270077-38.724587l16.95753-71.962249c5.644983-27.682999 22.625094-60.875502 39.560044-77.471753l435.250805-475.985005c17.00269-22.128335 45.250187-38.724587 73.475105-44.301831l118.725292-27.660419h17.00269c28.247497 0 56.494994 11.064168 79.120088 16.573672l107.435325 105.177332c28.202337 27.660419 28.202337 66.452745 5.599824 94.068004z m-412.670871 409.6c50.872591-11.086748 84.765072-60.875502 73.497685-110.686836 0-16.618831 11.267387-33.192503 28.247497-38.724586h5.690143c16.91237 0 28.247497 11.064168 33.915061 27.660419 16.91237 83.048997-45.250187 166.052834-130.060419 182.649085-16.93495 5.532084-33.892481-5.532084-39.537464-27.660419-5.667563-16.641411 5.644983-33.237663 28.247497-33.237663z m56.540154 110.686836c90.455215-16.573671 158.262756-99.600088 141.305226-182.649085 0-16.573671 11.335127-33.192503 28.270077-38.724587h5.644984c16.98011 0 28.292657 11.064168 33.937641 27.682999 22.602514 116.21892-62.207718 232.460419-192.200397 254.566175-16.95753 0-33.937641-11.064168-39.560044-27.660419-5.644983-16.618831 5.622404-33.215083 22.602513-33.215083z m62.162558 110.686836c130.037839-22.105755 220.470474-138.347255 197.845381-254.588754 0-16.596251 11.312547-33.192503 28.270077-38.747167h5.667563c16.93495 0 28.270077 11.086748 28.270077 33.237663 28.292657 149.411422-84.765072 298.845424-248.763131 326.528423-16.93495 0-33.892481-11.064168-39.560044-27.705579 0-16.573671 11.312547-33.192503 28.270077-38.724586z"  horiz-adv-x="1024" />

    
    <glyph glyph-name="wenjianjia" unicode="&#58938;" d="M904 552v56c0 30.9-25.1 56-56 56H512v56c0 30.9-25.1 56-56 56H120c-30.9 0-56-25.1-56-56v-672c0-1.3 0.6-2.4 0.7-3.6h0.8c2-28.5 24.4-52.4 54.6-52.4h694.2c26.7 0 49.8 18.9 55 45.1l89.6 447.8c6.9 34.7-19.6 67-54.9 67.1zM120 333.6V692c0 15.5 12.5 28 28 28h280c15.5 0 28-12.5 28-28v-56c0-15.5 12.5-28 28-28h336c15.5 0 28-12.5 28-28v-28H209.7c-26.7 0-49.8-18.9-55-45.1L120 333.6z m694.6-263.5c-2.8-12.9-14.3-22.1-27.5-22.1h-633c-17.7 0-30.9 16.1-27.5 33.5l78 392.1c2.6 13 14 22.4 27.3 22.4h640.6c18 0 31.4-16.6 27.6-34.1l-85.5-391.8z"  horiz-adv-x="1024" />

    
    <glyph glyph-name="shangchuan" unicode="&#58909;" d="M805.31776 639.744C755.97376 752.864 643.30176 832 512.00576 832c-131.296 0-244-79.136-293.344-192.256a223.84 223.84 0 0 1-218.496-232.416C4.80576 285.472 111.23776 192 233.18976 192H288.00576a32 32 0 1 1 0 64H229.18976c-74.4 0-142.496 48.608-160.32 120.832-25.376 102.368 52.384 196.608 151.296 198.944l40.832 0.96 13.44 30.816c32.832 75.232 97.216 134.4 177.088 153.344a256.224 256.224 0 0 0 295.136-146.72l16.32-37.44 33.824-0.8c82.496-1.952 155.232-63.136 162.56-145.344A160.16 160.16 0 0 0 800.00576 256h-64a32 32 0 1 1 0-64h54.816c121.92 0 228.384 93.472 232.992 215.328a223.84 223.84 0 0 1-218.496 232.416M662.62976 339.392a31.968 31.968 0 0 0-45.248 0L544.00576 412.768V-32a32 32 0 1 0-64 0V412.768l-73.376-73.376a31.968 31.968 0 1 0-45.248 45.248l110.912 110.912A55.68 55.68 0 0 0 512.00576 512c15.04 0 29.12-5.824 39.712-16.448l110.912-110.912a31.968 31.968 0 0 0 0-45.248"  horiz-adv-x="1024" />

    
    <glyph glyph-name="fuzhi" unicode="&#58944;" d="M626.8 138.2H338.3c-41.5 0-73.8 32.4-73.8 74.2V787.9c0 42 32.4 74.3 74.2 74.3h576.1c42.1 0 74.3-32.3 74.3-74.7v-575c0-36.8-25-66.8-61-73.4-4-0.7-8.2-0.8-12.3-0.8-96.3-0.1-192.7-0.1-289-0.1z m-0.4 59.4c86.8 0 173.6 0 260.4 0.1 6.9 0 13.8 0.4 20.7 1.3 12.3 1.5 18.4 7.1 20.3 19.3 1.3 8.3 1.8 16.8 1.8 25.1 0.1 171.2 0.1 342.4 0 513.6 0 6.9-0.4 13.9-1 20.8-1.3 14.9-6.8 21-21.3 23.4-6.1 1-12.4 1.4-18.7 1.4-174.6 0.1-349.2 0.1-523.7 0-6.9 0-13.8-0.7-20.6-1.8-11.1-1.8-16.7-7.2-18.3-18.4-1.3-9-2-18.1-2-27.1-0.1-170.2-0.1-340.4 0-510.6 0-6.9 0.4-13.9 1-20.8 1.4-16.9 7.4-23.3 24-25.2 6-0.7 12.1-1 18.2-1 86.2-0.1 172.7-0.1 259.2-0.1zM397.2-91.9H108.7c-40.9 0-73.5 32.4-73.5 73.4-0.1 192.3-0.1 384.6 0 576.9 0 41.1 32.6 73.6 73.5 73.6h70.6c17.4 0 30.2-12.6 30.1-29.8 0-16.8-12.8-29.4-29.9-29.6-19.3-0.2-38.5-0.6-57.8-0.9-0.5 0-1 0-1.5-0.1-16.5-1.5-23.1-8.2-24.8-25.2-0.7-7.1-1-14.2-1-21.3-0.1-170.2-0.1-340.4 0-510.5 0-8.7 0.7-17.5 1.9-26.1 1.7-12.4 8-18.2 20.5-19.7 6.5-0.8 13.1-1.3 19.7-1.3 173.9-0.1 347.8-0.1 521.7 0 5.9 0 11.8 0.4 17.7 1.1 15.7 1.8 22.3 8.3 23.2 24.3 0.9 17.3 0.9 34.7 1.1 52 0.2 18.5 13.2 32.2 30.6 31.7 17.7-0.5 30-15.6 29.3-34.2-0.7-20.3-0.2-40.6-0.4-61-0.2-31.4-19.6-59.3-48.9-69.3-7.5-2.5-15.8-3.9-23.7-3.9-96.6-0.1-193.2-0.1-289.9-0.1zM589.8 465.7H448.3c-16.9 0-31.6 12.8-33.6 29.1-2.3 18.2 8.1 34.1 25.2 38.4 3.3 0.8 6.8 1 10.3 1 44.3 0.1 88.6 0 132.9 0h6.7v6.6 133.8c0 20.5 14.6 35.7 34.3 35.7 19.7 0 34.3-15.2 34.3-35.7v-140.4h6.7c45 0 89.9 0.1 134.9 0 16.8 0 31-12.4 33.4-28.7 2.5-17.2-7.3-33.3-23.6-38.2-3.6-1.1-7.4-1.6-11.2-1.6-44.6-0.1-89.3-0.1-133.9-0.1h-6.4v-6.3c0-44.9 0.1-89.9-0.1-134.8 0-14.7-6.8-25.9-20.2-31.9-13.2-5.8-25.9-3.9-36.9 5.6-7.7 6.7-11.4 15.6-11.4 25.9V459.4c0.1 2 0.1 3.8 0.1 6.3z"  horiz-adv-x="1024" />

    
    <glyph glyph-name="jiage" unicode="&#59021;" d="M512 896C229.199966 896 0 666.756633 0 384c0-282.800034 229.199966-512 512-512s512 229.199966 512 512C1024 666.756633 794.800034 896 512 896z m0-946.70306c-240.136984 0-434.70306 194.609477-434.70306 434.70306S271.863016 818.70306 512 818.70306c240.050182 0 434.70306-194.609477 434.70306-434.70306s-194.652878-434.70306-434.70306-434.70306zM676.966686 377.793676a38.192761 38.192761 0 0 1 0 76.342121h-97.044333l91.879631 156.243113a38.843774 38.843774 0 0 1-66.967535 39.364584l-92.834449-157.979147-92.921251 157.979147a38.67017 38.67017 0 0 1-53.079258 13.758074 38.713571 38.713571 0 0 1-13.801475-53.122658l91.879631-156.243113H347.033314a38.192761 38.192761 0 0 1 0-76.342121h126.730524v-75.257099h-126.730524a38.192761 38.192761 0 0 1 0-76.342121h126.730524v-115.489701a38.192761 38.192761 0 0 1 76.385522 0v115.489701h126.817326a38.192761 38.192761 0 0 1 0 76.342121h-126.817326V377.793676h126.817326z"  horiz-adv-x="1024" />

    
    <glyph glyph-name="qianzheng" unicode="&#58928;" d="M882.921891 728.324116c-0.071631 62.377676-35.258015 101.107769-97.677647 101.505835-182.281533 1.163499-364.579439 1.193175-546.859949-0.026606-62.377676-0.417509-97.28572-39.173185-97.310279-101.777011-0.088004-229.54907-0.085958-459.099163-0.00307-688.648232 0.022513-63.172785 36.849256-101.464903 100.17656-101.662401 180.599218-0.561795 361.203552-0.575098 541.80277 0.012279 63.197344 0.205685 99.82352 38.603203 99.881848 101.947904 0.105401 114.775047 0.029676 229.54907 0.028653 344.324116-0.002047 114.774023 0.093121 229.54907-0.038886 344.324116z m-48.365544-682.945347c-0.051165-42.479487-13.580297-56.344263-55.80805-56.385195-177.972391-0.174985-355.945805-0.181125-533.918196 0.007163-41.944298 0.044002-55.382355 14.051017-55.396681 56.755632-0.079818 225.207182-0.077771 450.414363-0.005116 675.621545 0.014326 44.86993 12.301164 57.45762 56.880475 57.496505 177.129186 0.155543 354.258373 0.153496 531.386536 0 43.757596-0.037862 56.833403-13.532201 56.874335-57.875129 0.104377-113.025193 0.034792-226.050386 0.034792-339.076602-0.00307-112.179942 0.086981-224.361931-0.048095-336.543919zM757.675352 464.384795c-0.300852 65.190745-25.816992 126.435621-71.946612 172.566264-46.130643 46.12962-107.374496 71.64576-172.565241 71.946612a49.345871 49.345871 0 0 1-2.326998 0c-65.190745-0.300852-126.435621-25.815969-172.566264-71.946612-46.12962-46.130643-71.64576-107.374496-71.946612-172.566264a49.345871 49.345871 0 0 1 0-2.326998c0.300852-65.190745 25.815969-126.435621 71.946612-172.566264 46.130643-46.12962 107.374496-71.64576 172.566264-71.946612a49.345871 49.345871 0 0 1 2.326998 0c65.190745 0.300852 126.435621 25.816992 172.565241 71.946612 46.12962 46.130643 71.64576 107.374496 71.946612 172.566264a49.345871 49.345871 0 0 1 0 2.326998z m-95.117334-35.349089c-15.414061-5.393847-32.865525-9.846252-51.772131-13.284561a654.05639 654.05639 0 0 1 1.709945 47.470151c0 16.117073-0.582261 32.000831-1.709945 47.471175 18.906605-3.438309 36.359093-7.891737 51.772131-13.285585 37.022195-12.95608 50.461275-27.542286 50.461275-34.18559 0-6.643304-13.43908-21.230534-50.461275-34.18559zM512 262.202003c-6.643304 0-21.230534 13.438057-34.18559 50.461275-5.393847 15.414061-9.846252 32.865525-13.284561 51.772131a654.06253 654.06253 0 0 1 47.471174-1.709945c16.117073 0 32.000831 0.582261 47.471175 1.709945-3.438309-18.907629-7.890714-36.359093-13.284561-51.772131-12.958126-37.023218-27.544333-50.461275-34.187637-50.461275z m0 145.19487c-18.327414 0-36.266995 0.792039-53.501518 2.322905-1.530866 17.235546-2.322905 35.174104-2.322905 53.501518 0 18.327414 0.792039 36.266995 2.322905 53.502541 17.235546 1.530866 35.174104 2.322905 53.501518 2.322905 18.327414 0 36.265972-0.792039 53.501518-2.322905 1.530866-17.235546 2.322905-35.175127 2.322905-53.502541 0-18.327414-0.793062-36.265972-2.322905-53.501518-17.235546-1.530866-35.174104-2.322905-53.501518-2.322905z m-201.019293 55.824423c0 6.643304 13.43908 21.230534 50.461275 34.18559 15.414061 5.393847 32.865525 9.846252 51.772131 13.285585a654.06253 654.06253 0 0 1-1.709945-47.471175c0-16.117073 0.582261-32.000831 1.709945-47.470151-18.906605 3.438309-36.358069 7.890714-51.772131 13.284561-37.022195 12.955056-50.461275 27.542286-50.461275 34.18559z m201.019293 201.019293c6.643304 0 21.22951-13.43908 34.18559-50.461275 5.393847-15.414061 9.846252-32.865525 13.284561-51.772131-15.470343 1.127683-31.354102 1.709945-47.471174 1.709945s-32.000831-0.582261-47.471175-1.709945c3.438309 18.906605 7.890714 36.358069 13.284561 51.772131 12.957103 37.022195 27.544333 50.461275 34.187637 50.461275z m189.733249-134.613884c-7.224542 3.433192-15.328104 6.762007-24.420179 9.94449-21.091364 7.381108-45.38056 13.187347-71.708182 17.256012-4.068665 26.326599-9.874905 50.615794-17.256013 71.707159-3.181459 9.093099-6.512321 17.195637-9.944489 24.421202 57.509808-20.186761 103.142102-65.819055 123.328863-123.328863zM445.594591 652.954545c-3.433192-7.224542-6.763031-15.328104-9.94449-24.421203-7.381108-21.091364-13.186324-45.38056-17.254989-71.707158-26.327622-4.068665-50.615794-9.874905-71.708182-17.256013-9.093099-3.181459-17.195637-6.511297-24.420179-9.944489 20.186761 57.510832 65.818031 103.142102 123.32784 123.328863zM322.266751 396.815887c7.224542-3.433192 15.328104-6.763031 24.421203-9.94449 21.091364-7.381108 45.38056-13.186324 71.708181-17.254989 4.068665-26.326599 9.874905-50.615794 17.256013-71.708182 3.181459-9.093099 6.511297-17.195637 9.944489-24.420179-57.511855 20.185738-103.144148 65.818031-123.329886 123.32784z m256.137635-123.328863c3.433192 7.224542 6.763031 15.328104 9.944489 24.421202 7.381108 21.092387 13.186324 45.38056 17.256013 71.708182 26.326599 4.068665 50.615794 9.874905 71.708182 17.254989 9.093099 3.181459 17.195637 6.511297 24.421202 9.94449-20.187785-57.509808-65.819055-103.142102-123.329886-123.328863zM726.70806 124.467035H297.290917c-12.335956 0-22.335704-9.999748-22.335705-22.335704s9.999748-22.335704 22.335705-22.335704h429.417143c12.335956 0 22.335704 9.999748 22.335704 22.335704s-9.999748 22.335704-22.335704 22.335704z"  horiz-adv-x="1024" />

    
    <glyph glyph-name="word" unicode="&#58911;" d="M960 717.867h-350.933v-59.733h270.933v-37.333h-270.933v-61.867h270.933v-37.333h-270.933v-59.733h270.933v-37.333h-270.933v-60.8h270.933v-37.333h-270.933v-59.733h270.933v-37.333h-270.933v-60.8h270.933v-37.333h-270.933v-78.933h350.933zM64 738.032v-703.694l504.533-98.338v896l-504.533-93.968zM406.455 220.176l-71.824 7.546-44.912 192.791-41.52-183.711-58.447 6.142-65.339 264.563 52.563 5.523 41.246-177.472 40.35 186.045 64.498 6.778 45.534-197.732 55.941 208.394 83.574 8.782-101.665-327.648z"  horiz-adv-x="1024" />

    
    <glyph glyph-name="bianji" unicode="&#58880;" d="M343.3 335.7c-0.6-0.8-1.2-1.6-1.4-2.5l-45.1-170.9c-2.6-10 0.1-20.7 7.2-28.2 5.3-5.4 12.3-8.3 19.8-8.3 2.5 0 4.9 0.3 7.4 1l164.1 46.3c0.3 0 0.4-0.2 0.6-0.2 1.9 0 3.8 0.7 5.1 2.2l438.8 453.6c13 13.5 20.2 31.9 20.2 51.9 0 22.7-9.3 45.3-25.6 62.1L893 785.4c-16.3 16.8-38.2 26.5-60.1 26.5-19.3 0-37.1-7.4-50.2-20.9L343.9 337.2c-0.4-0.4-0.3-1-0.6-1.5z m553.6 337.2l-43.6-45-70.6 74.2 43 44.4c6.8 7.1 20 6 27.8-2.1l41.5-42.9c4.3-4.5 6.8-10.4 6.8-16.3-0.2-4.7-1.9-9.1-4.9-12.3zM421.3 328.5L738 655.9l70.7-74.3-316.1-326.7-71.3 73.6m-57.7-132.7l22.9 86.8 61-63.1-83.9-23.7m561.1 297.4c-16.6 0-30.2-14-30.3-31.4v-422.9c0-22.2-17.4-40.2-38.9-40.2h-692c-21.5 0-38.9 18-38.9 40.2V729.2c0 22.2 17.5 40.2 38.9 40.2h445.7c16.7 0 30.3 14 30.3 31.3 0 17.2-13.6 31.3-30.3 31.3H158.9C106.6 832 64 788 64 733.9V34c0-54.1 42.6-98.1 94.9-98.1h701.2c52.3 0 94.9 44 94.9 98.1V462c-0.1 17.2-13.7 31.2-30.3 31.2z"  horiz-adv-x="1024" />

    
    <glyph glyph-name="xiaochengxu" unicode="&#59005;" d="M515.011765 885.960784c-277.082353 0-501.960784-224.878431-501.960785-501.960784s224.878431-501.960784 501.960785-501.960784 501.960784 224.878431 501.960784 501.960784c0 278.086275-224.878431 501.960784-501.960784 501.960784z m166.65098-539.105882c-22.086275-4.015686-41.160784 0-51.2 21.082353-9.035294 20.078431 4.015686 34.133333 18.070588 46.180392 7.027451 6.023529 15.058824 10.039216 23.090196 14.054902 33.129412 19.07451 61.239216 44.172549 44.172549 86.337255-15.058824 39.152941-51.2 49.192157-89.349019 44.172549-44.172549-6.023529-68.266667-32.12549-68.266667-77.301961 0-69.270588 2.007843-139.545098-1.003921-208.815686-4.015686-78.305882-87.341176-147.576471-167.654902-144.564706-86.337255 3.011765-155.607843 73.286275-154.603922 176.690196 2.007843 48.188235 45.176471 87.341176 104.407843 113.443137 25.098039 11.043137 49.192157 11.043137 63.247059-17.066666 16.062745-33.129412-11.043137-44.172549-33.129412-54.211765-44.172549-19.07451-66.258824-50.196078-45.17647-95.372549 20.078431-42.164706 61.239216-51.2 104.407843-36.141177 36.141176 12.047059 50.196078 41.160784 49.192157 79.309804-1.003922 63.247059-1.003922 125.490196 0 188.737255 1.003922 75.294118 36.141176 123.482353 105.411764 148.580392 63.247059 22.086275 141.552941 2.007843 184.721569-48.188235 64.25098-79.309804 15.058824-215.843137-86.337255-236.92549z"  horiz-adv-x="1024" />

    
    <glyph glyph-name="banlijinduchaxun" unicode="&#59417;" d="M744.91904-0.1024c-96.03072 0-175.104 79.08352-175.104 175.104 0 96.03072 79.07328 175.104 175.104 175.104 96.02048 0 175.104-79.07328 175.104-175.104 0-96.02048-79.08352-175.104-175.104-175.104m0 293.72416c-67.7888 0-118.62016-50.83136-118.62016-118.62016 0-67.7888 50.83136-118.62016 118.62016-118.62016 67.77856 0 118.60992 50.8416 118.60992 118.62016 0 67.7888-50.83136 118.62016-118.60992 118.62016M936.96-67.8912c-5.64224 0-16.93696 5.65248-22.58944 5.65248l-84.72576 84.736c-11.29472 11.29472-11.29472 28.24192 0 39.5264 11.29472 11.30496 28.24192 11.30496 39.53664 0l84.72576-84.71552c11.30496-11.30496 11.30496-28.24192 0-39.54688-5.64224 0-11.29472-5.64224-16.9472-5.64224M671.488 141.1072c-16.9472 0-28.25216 11.30496-28.25216 28.25216 0 62.12608 50.8416 107.3152 107.32544 107.3152 16.9472 0 28.24192-11.29472 28.24192-28.24192s-11.29472-28.24192-28.24192-28.24192a50.62656 50.62656 0 0 1-50.83136-50.83136c0-16.9472-11.30496-28.24192-28.24192-28.24192M801.40288 835.8912H197.00736C123.57632 835.8912 61.44 773.74464 61.44 700.3136v-604.38528c0-73.43104 62.13632-135.5776 135.56736-135.5776H586.752c16.9472 0 28.24192 11.30496 28.24192 28.25216 0 16.9472-11.29472 28.24192-28.24192 28.24192H197.0176c-39.54688 0-73.43104 33.8944-73.43104 73.43104V700.3136c-5.65248 45.18912 28.24192 79.08352 73.4208 79.08352h604.40576c39.53664 0 73.4208-33.8944 73.4208-73.4208v-338.92352c0-16.9472 11.30496-28.24192 28.25216-28.24192 16.9472 0 28.24192 11.29472 28.24192 28.24192V705.96608C936.96 773.75488 874.83392 835.8912 801.40288 835.8912zM259.14368 372.70528c-5.65248 0-16.9472 0-22.59968 5.64224-5.65248 11.30496-5.65248 28.24192 5.65248 39.54688l112.96768 112.96768-112.96768 112.96768c-11.30496 11.30496-11.30496 28.24192 0 39.54688 11.29472 11.29472 28.24192 11.29472 39.53664 0L411.648 553.45152c5.65248-5.64224 5.65248-11.29472 5.65248-22.58944s0-16.9472-5.65248-22.58944L281.73312 378.34752c-5.65248-5.64224-11.29472-5.64224-22.58944-5.64224zM434.24768 372.70528c-5.65248 0-16.9472 0-22.59968 5.64224-11.29472 11.30496-11.29472 28.24192 0 39.54688l112.97792 112.96768L411.648 643.82976c-11.29472 11.30496-11.29472 28.24192 0 39.54688 11.29472 11.29472 28.24192 11.29472 39.54688 0l129.91488-129.92512c11.29472-11.29472 11.29472-28.24192 0-39.5264l-129.91488-135.5776c-5.65248-5.64224-11.30496-5.64224-16.9472-5.64224zM603.6992 372.70528c-5.64224 0-16.9472 0-22.58944 5.64224-11.30496 11.30496-11.30496 28.24192 0 39.54688L694.0672 530.86208 581.10976 643.82976c-11.30496 11.30496-11.30496 28.24192 0 39.54688 11.29472 11.29472 28.24192 11.29472 39.53664 0l135.56736-129.92512c5.64224-5.64224 5.64224-11.29472 5.64224-22.58944s-5.64224-16.9472-5.64224-22.58944L626.29888 378.34752c-5.65248-5.64224-16.9472-5.64224-22.59968-5.64224z"  horiz-adv-x="1024" />

    
    <glyph glyph-name="baocun" unicode="&#58963;" d="M896 832H128c-32 0-64-32-64-64v-768c0-32 32-64 64-64h768c32 0 64 32 64 64V768c0 32-32 64-64 64zM320 768h384v-288c0-19.2-12.8-32-32-32h-320c-19.2 0-32 12.8-32 32V768z m576-736c0-19.2-12.8-32-32-32h-704c-19.2 0-32 12.8-32 32v704c0 19.2 12.8 32 32 32H256v-320c0-32 32-64 64-64h384c32 0 64 32 64 64V768h96c19.2 0 32-12.8 32-32v-704zM608 512c19.2 0 32 12.8 32 32v128c0 19.2-12.8 32-32 32s-32-12.8-32-32v-128c0-19.2 12.8-32 32-32z"  horiz-adv-x="1024" />

    
    <glyph glyph-name="hangcheng" unicode="&#58993;" d="M865.933 783.442h-108.297v80.273h-53.597v-80.273h-377.607v80.273h-53.597v-80.273h-115.282c-57.954-0.023-104.926-47.010-104.926-104.967 0-0.007 0-0.014 0-0.022v-655.863c0-58.009 46.979-104.947 104.947-104.947h708.357c0.018 0 0.039 0 0.061 0 57.938 0 104.905 46.969 104.905 104.905 0 0.014 0 0.029 0 0.043v655.862c0 58.009-46.979 104.987-104.947 104.987zM918.407 22.591c-0.011-28.983-23.51-52.473-52.493-52.473 0 0 0 0 0 0h-708.337c-28.983 0.011-52.473 23.51-52.473 52.493 0 0 0 0 0 0v655.843c0 28.991 23.502 52.493 52.493 52.493h115.261v-96.102h53.597v96.123h377.607v-96.102h53.597v96.102h108.297c28.983-0.011 52.473-23.51 52.473-52.493 0 0 0 0 0 0v-655.863zM224.204 372.827h75.655v-58.825h-75.636zM358.686 372.827h443.153v-58.825h-443.153zM224.204 516.357h75.655v-58.825h-75.636zM358.686 516.357h443.153v-58.825h-443.153zM224.204 228.705h75.655v-58.825h-75.636zM358.686 228.705h443.153v-58.825h-443.153z"  horiz-adv-x="1024" />

    
    <glyph glyph-name="chaxun" unicode="&#58881;" d="M235.706368 659.761152a30.875648 30.875648 0 0 1-30.982144-30.982144c0-17.195008 13.789184-30.939136 30.982144-30.939136h369.262592c17.195008 0 30.982144 13.746176 30.982144 30.939136a30.875648 30.875648 0 0 1-30.982144 30.982144H235.706368z m123.058176-509.661184c17.195008 0 30.982144 13.746176 30.982144 30.939136s-13.789184 30.939136-30.982144 30.939136h-123.058176c-17.195008 0-30.982144-13.748224-30.982144-30.939136 0-17.195008 13.789184-30.939136 30.982144-30.939136h123.058176z m61.966336-133.341184H143.54432c-33.6896 0-61.181952 27.53536-61.181952 61.22496V721.639424c0 33.687552 27.492352 61.179904 61.181952 61.179904h553.588736c33.687552 0 61.267968-27.492352 61.267968-61.179904V478.22848c0-17.19296 13.703168-30.984192 30.896128-30.984192s30.984192 13.791232 30.984192 30.984192V721.639424c0 68.07552-55.072768 123.058176-123.148288 123.058176H143.54432c-68.07552 0-123.058176-54.984704-123.058176-123.058176v-642.95936c0-68.118528 54.984704-123.14624 123.058176-123.14624h277.18656c17.19296 0 30.896128 13.789184 30.896128 30.982144 0 16.49664-13.703168 30.242816-30.896128 30.242816z m0 420.134912h-185.024512c-16.494592 0-30.285824-13.789184-30.285824-30.982144 0-17.195008 13.789184-30.896128 30.982144-30.896128h184.326144c17.19296 0 30.896128 13.70112 30.896128 30.896128 0.002048 17.19296-13.70112 30.982144-30.89408 30.982144z m573.489152-486.856704l-93.472768 93.560832c26.093568 35.739648 42.590208 79.767552 42.590208 127.203328 0 118.99904-96.26624 215.263232-215.222272 215.263232s-215.222272-96.264192-215.222272-215.263232 96.26624-215.26528 215.222272-215.26528c48.08704 0 91.46368 16.494592 127.248384 42.678272l93.472768-93.560832c12.392448-12.392448 32.989184-12.392448 45.38368 0 12.392448 12.392448 12.392448 32.333824 0 45.38368z m-266.104832 66.721792c-85.26848 0-154.042368 68.773888-154.042368 154.042368 0 85.311488 68.773888 154.04032 154.042368 154.04032s154.04032-68.728832 154.04032-154.04032c0-85.26848-68.77184-154.042368-154.04032-154.042368z"  horiz-adv-x="1024" />

    
    <glyph glyph-name="xiangqing" unicode="&#59853;" d="M405.813093 4.541729h-262.012993c-35.310345 0-66.014993 30.704648-66.014993 66.014993V752.1999c0 35.310345 30.704648 66.014993 66.014993 66.014993h576.223888c35.310345 0 66.014993-30.704648 66.014993-66.014993v-157.105447c0-23.028486 15.864068-38.892554 38.892553-38.892554s38.892554 15.864068 38.892554 38.892554v157.105447c0 80.343828-62.944528 143.8001-143.8001 143.8001h-576.223888c-80.343828 0-143.8001-62.944528-143.8001-143.8001V71.068466c0-80.343828 62.944528-143.8001 143.8001-143.8001h262.012993c23.028486 0 38.892554 15.864068 38.892554 38.892554-0.511744 22.516742-16.375812 38.38081-38.892554 38.380809zM1011.718141-61.985007l-88.01999 88.01999c31.216392 41.451274 50.150925 93.137431 50.150924 149.429285 0 137.147426-111.56022 248.195902-248.195902 248.195902-137.147426 0-248.195902-111.56022-248.195902-248.195902 0-137.147426 111.56022-248.195902 248.195902-248.195902 53.221389 0 102.86057 16.887556 143.288356 45.545227l89.043478-89.043478c7.676162-7.676162 16.887556-11.770115 27.122439-11.770115s19.958021 4.093953 27.122439 11.770115c7.676162 7.676162 11.770115 16.887556 11.770115 27.122439s-4.605697 19.958021-12.281859 27.122439z m-286.576712 66.526736c-92.625687 0-170.922539 78.296852-170.922538 170.922539s78.296852 170.922539 170.922538 170.922539c92.625687 0 170.922539-78.296852 170.922539-170.922539S817.767116 4.541729 725.141429 4.541729z m-110.024987 681.131434h-366.92054c-23.028486 0-38.892554-15.864068-38.892554-38.892553s15.864068-38.892554 38.892554-38.892554h366.92054c23.028486 0 38.892554 15.864068 38.892554 38.892554s-15.864068 38.892554-38.892554 38.892553z m0-157.105447h-366.92054c-23.028486 0-38.892554-15.864068-38.892554-38.892554s15.864068-38.892554 38.892554-38.892553h366.92054c23.028486 0 38.892554 15.864068 38.892554 38.892553s-15.864068 38.892554-38.892554 38.892554z m-10.234883-332.121939c-14.328836 0-26.098951-11.770115-26.09895-26.09895s11.770115-26.098951 26.09895-26.098951 26.098951 11.770115 26.098951 26.098951-11.770115 26.098951-26.098951 26.09895z m120.25987 104.907546c-36.845577 0-68.061969-10.234883-99.790105-41.963018-10.234883-10.234883-10.234883-26.098951 0-36.845577 5.117441-5.117441 15.864068-10.234883 20.98151-10.234883s15.864068 5.117441 20.981509 10.234883c15.864068 20.981509 36.845577 31.216392 57.827086 31.216391s36.845577-5.117441 52.197901-20.981509c10.234883-10.234883 26.098951-10.234883 36.845578 0s10.234883 26.098951 0 36.845577c-20.981509 20.981509-57.315342 31.728136-89.043479 31.728136z"  horiz-adv-x="1024" />

    
    <glyph glyph-name="dizhi" unicode="&#58942;" d="M873.884128 522.752741c-0.623532-55.896179-18.472145-107.001642-42.582958-156.32923-36.129936-73.911426-84.100267-139.957475-136.241814-203.135814a1800.124398 1800.124398 0 0 0-156.217693-166.547636c-19.42357-18.241008-37.152583-18.79735-57.067991-0.924547C378.657013 88.364375 285.981833 189.829479 215.241822 309.86214c-11.515191 19.535107-21.951294 39.669557-30.940105 60.508169-8.521161 19.748774-1.173155 40.407314 17.222393 48.939225 18.445269 8.553412 39.64268 1.050867 48.619396-18.465426 42.279255-91.945486 104.124524-170.075162 171.701184-244.16666 26.056664-28.566919 53.350985-55.939182 81.610169-82.34927 3.496619-3.264138 5.697795-5.910119 10.65649-0.913797 93.645418 94.36033 181.322933 193.437467 245.150336 311.212511 18.605183 34.330561 34.122269 70.206515 39.31882 109.303605 7.831781 58.9359-4.00727 114.997369-31.964095 166.715613C713.372931 759.140029 630.726677 815.304972 517.926453 819.266553c-128.496037 4.508515-242.672332-78.473694-283.113242-201.01661a313.449971 313.449971 0 0 1-15.956515-94.755413c-0.298328-23.178202-15.494241-39.548613-36.444389-39.493517-21.015996 0.049721-36.361073 16.79909-36.295226 39.610429 0.474368 172.394595 119.216963 321.735963 286.564171 360.404374 138.455085 31.996346 286.772463-25.540637 370.575745-143.63551 46.293244-65.23707 69.29003-137.948465 70.627131-217.627565zM509.917288-18.613078c-9.472585 0-18.970702 4.392947-29.039943 13.42879-118.07606 105.97362-202.850924 205.866455-266.792552 314.365112-12.00031 20.357524-22.436413 40.766114-31.018046 60.658676-8.831583 20.469061-1.306193 41.78876 17.891615 50.691566 5.183112 2.404093 10.617519 3.621594 16.150025 3.621594 14.677199 0 27.802285-8.714671 34.256651-22.745492 45.879348-99.774579 115.737813-182.713786 171.474079-243.822642 24.907698-27.30776 52.340433-54.989101 81.534915-82.274016l0.576498-0.541559c1.651554-1.556143 2.955059-2.785738 4.269315-2.785738 1.061618 0 2.350341 0.778072 3.938736 2.379904 83.260379 83.89735 177.468858 186.442886 244.92323 310.906121 22.633955 41.765916 34.71355 75.334531 39.166969 108.841331 7.576455 57.01155-3.127068 112.828444-31.814931 165.897226C710.872082 760.939403 627.583482 814.070002 517.879419 817.924077c-3.295046 0.115568-6.635782 0.174697-9.926796 0.174696-123.077757 0-232.33164-80.482704-271.862783-200.269446a311.747351 311.747351 0 0 1-15.889324-94.350923c-0.305047-23.65257-16.152713-40.818523-37.683391-40.819867-10.652459 0.026876-20.255394 4.183311-27.149189 11.706013-6.864231 7.493139-10.62827 17.880865-10.594674 29.252267 0.229793 83.678307 28.995597 165.780314 80.996043 231.181331 52.003134 65.401016 125.378376 111.756076 206.609587 130.526548 25.219464 5.828146 51.241188 8.783205 77.340854 8.783206 56.483429 0 113.347158-13.904502 164.444558-40.209772 51.731682-26.631818 96.749641-65.617371 130.18925-112.739752 45.676431-64.368962 69.522511-137.843647 70.874394-218.382792-0.548278-49.230834-13.723087-97.62178-42.718684-156.942012-31.605295-64.652508-73.674914-127.384699-136.412479-203.400546a1807.672633 1807.672633 0 0 0-156.334606-166.669923c-10.299034-9.674158-20.061884-14.376183-29.844891-14.376183zM217.108387 421.463677c-5.138766 0-10.191528-1.134184-15.018529-3.372988-17.82308-8.264491-24.78541-28.111364-16.554514-47.186884 8.537286-19.790432 18.920981-40.096891 30.86485-60.359004 63.797839-108.254082 148.408757-207.944001 266.272494-313.729486 9.553214-8.57357 18.465426-12.740754 27.2446-12.740754 9.066751 0 18.226226 4.462825 28.005202 13.645145a1805.509083 1805.509083 0 0 1 156.100781 166.424004c62.597808 75.846526 104.563953 138.41477 136.071149 202.871081 28.81015 58.942619 41.902985 106.978797 42.445888 155.752732-1.342476 79.949208-25.020579 152.915929-70.378524 216.834712C734.70338 834.665382 625.378274 891.420263 509.719746 891.420263c-25.896749 0-51.714213-2.932215-76.736135-8.713327-167.637473-38.735602-285.048342-186.401227-285.52271-359.099526-0.030908-10.694117 3.480493-20.435466 9.889169-27.427359 6.380456-6.963674 15.281917-10.811029 25.064925-10.835218 20.417996 0.001344 34.808961 15.695814 35.097882 38.167166a314.45246 314.45246 0 0 0 16.025049 95.162591C273.433245 739.56192 383.712463 820.786413 507.952623 820.786413c3.323266 0 6.693566-0.059128 10.020864-0.176041 110.725366-3.890358 194.775912-57.495325 249.82414-159.325948 28.962002-53.579434 39.767656-109.943263 32.113259-167.529968-4.499108-33.84813-16.671427-67.700291-39.469327-109.768566-67.612943-124.762906-161.98268-227.48717-245.377442-311.517558-2.148768-2.166237-4.005926-3.174102-5.846959-3.174102-2.382592 0-4.195405 1.707995-6.113036 3.518119l-0.567092 0.532153c-29.248235 27.334636-56.730691 55.067043-81.686767 82.427211-55.866615 61.252645-125.895746 144.400143-171.929633 244.510678-6.008218 13.065959-18.198006 21.181286-31.812243 21.181286zM99.865496-53.002768h818.750358c-0.037627 4.7074-3.143194 7.783404-5.107859 11.228958a93196.321483 93196.321483 0 0 1-106.82157 187.095982c-7.655741 13.369662-8.130109 26.690946 0.385676 39.619835 7.671867 11.65226 18.918293 17.294959 32.910144 16.336816 12.571433-0.86542 22.461946-7.040271 28.682487-17.890271 48.690618-84.930747 97.448428-169.829243 145.637802-255.040849 14.877428-26.310645-3.515432-54.388414-34.802242-54.393789-162.966356-0.055097-325.924649-0.02822-488.88563-0.02822-148.939566 0-297.891227 0.748508-446.816011-0.572468-33.422139-0.29564-53.919421 30.226536-35.539999 61.13842 48.07918 80.896601 93.786519 163.201524 140.490972 244.919199 10.055803 17.597319 25.783868 25.324282 42.247003 21.048248 24.350013-6.33611 34.946031-32.189857 22.042674-55.015978-24.923824-44.094755-50.209135-87.985249-75.326468-131.969811-12.345671-21.632809-24.641621-43.281744-37.847337-66.476072z m555.596869 581.848388c0.012094-80.384605-65.583775-145.733212-146.106794-145.54911-79.832296 0.17604-144.948422 65.560931-144.943046 145.538359 0.005375 80.478673 65.433268 145.659302 146.066479 145.511482 79.828264-0.143789 144.976642-65.530023 144.983361-145.500731z m-145.081459 72.739615c-40.407314-0.010751-73.129323-32.470715-73.196514-72.607921-0.067191-40.587386 33.153375-73.294613 74.053871-72.914312 39.27313 0.368207 71.626933 33.514863 71.461642 73.208608-0.17604 39.627898-32.871173 72.323031-72.318999 72.313625zM43.313532-127.990593c-16.769526 0-31.143021 7.669179-38.452056 20.516095-7.18406 12.627873-6.367018 28.175867 2.241491 42.652836 33.860224 56.972579 67.094229 115.615526 99.234364 172.327404 13.489262 23.801734 27.436766 48.413791 41.244514 72.571638 8.431125 14.753796 20.710949 22.879874 34.575136 22.879874 3.02897 0 6.115723-0.403146 9.176945-1.198687 11.8068-3.071972 21.159785-10.92391 25.660236-21.54143 4.69665-11.081137 3.680722-23.996588-2.784394-35.436525-16.995287-30.066621-34.444786-60.54042-51.320473-90.009042-8.007821-13.985131-16.016987-27.970263-24.008683-41.966144a36974.603078 36974.603078 0 0 1-24.771972-43.496756l-11.931775-20.968962H917.161841c-0.38702 2.475316-1.733527 4.482982-3.147226 6.587404-0.56978 0.849294-1.158373 1.726808-1.674399 2.632543a93159.785713 93159.785713 0 0 1-106.820226 187.093294c-8.205363 14.331837-8.061574 28.135553 0.430022 41.026815 7.920473 12.027186 19.794464 17.907741 34.124957 16.938847 13.018925-0.896328 23.307208-7.31441 29.756199-18.562181l14.834425-25.871216c43.022387-75.029484 87.509537-152.613569 130.807408-229.176352 6.987862-12.357766 7.243188-25.881967 0.698786-37.102861-7.045647-12.078251-20.752607-19.291875-36.670152-19.294563-81.482506-0.02822-162.965012-0.033595-244.44483-0.033596l-244.439455 0.00672c-39.55802 0-79.118727 0.052409-118.679435 0.104817-39.559364 0.053753-79.120071 0.106162-118.678091 0.106162-83.746842 0-148.34291-0.241888-209.446391-0.783447l-0.499901-0.002687z m138.843449 328.260207c-12.857667 0-24.308354-7.64499-32.240922-21.526647-13.803716-24.153815-27.75122-48.763185-41.239138-72.563575-32.146854-56.723972-65.388922-115.37767-99.262584-172.374437-8.100545-13.624988-8.908181-28.186618-2.214615-39.951759C14.022295-118.141739 27.523651-125.302954 43.313532-125.302954l0.473025 0.002688c61.111544 0.541559 125.714331 0.783447 209.469236 0.783447 39.559364 0 79.120071-0.052409 118.680778-0.106162 39.559364-0.052409 79.120071-0.104818 118.676747-0.104818l244.439455-0.006719c81.481162 0 162.962324 0.006719 244.444831 0.033595 14.949994 0.002688 27.790191 6.717755 34.349375 17.961494 6.049876 10.374288 5.790519 22.922876-0.714912 34.425973-43.295182 76.556063-87.779645 154.136117-130.800689 229.161569l-14.833081 25.87256c-5.981341 10.432072-15.52918 16.385193-27.608775 17.218362-13.494637 0.917829-24.235788-4.403697-31.696675-15.736129-7.888221-11.977465-8.00379-24.833788-0.34133-38.2142a94205.574405 94205.574405 0 0 0 106.822913-187.09867c0.467649-0.81973 1.002489-1.619303 1.570926-2.465909 1.725464-2.570727 3.680722-5.485472 3.712973-9.418832l0.010751-1.35457h-822.417642l14.218956 24.985639c8.423062 14.804861 16.586766 29.155512 24.773316 43.499443 7.991696 13.997226 16.000861 27.982357 24.010026 41.968832 16.874344 29.465934 34.322498 59.935701 51.313754 89.996948 6.052564 10.707555 7.01877 22.75893 2.650013 33.064683-4.171216 9.843479-12.868417 17.128326-23.860862 19.989318a33.72853 33.72853 0 0 1-8.49966 1.114026z m327.537233 181.683077h-0.34133c-80.666808 0.177384-146.289554 66.068894-146.284179 146.882178 0.005375 80.975886 66.01111 146.855302 147.137504 146.855302h0.276827c80.676214-0.145133 146.317774-66.019173 146.324493-146.844551 0.005375-39.179063-15.314169-76.050787-43.136612-103.82754-27.818411-27.771377-64.743888-43.065389-103.976703-43.065389z m0.511995 291.04984c-79.644161 0-144.444489-64.672666-144.449865-144.167662-0.005375-79.333738 64.414652-144.019842 143.601915-144.194539h0.335955c38.515216 0 74.766095 15.014497 102.076542 42.280599 27.313135 27.267445 42.351821 63.464572 42.346446 101.924691-0.006719 79.345833-64.444216 144.014467-143.642229 144.156911h-0.268764z m0.326548-218.28738c-20.108918 0.001344-38.961364 7.79281-53.082221 21.9392-13.967662 13.990507-21.640872 32.572845-21.60862 52.324307 0.068535 40.766114 33.5068 73.939646 74.53899 73.950396h0.020157c40.427471 0 73.463934-33.040494 73.644006-73.653412 0.081973-19.552576-7.491795-38.125508-21.323731-52.296087-13.835967-14.173266-32.114603-22.080301-51.469637-22.261716l-0.718944-0.002688z m-0.133038 146.870084l-0.018813-1.34382c-39.555332-0.010751-71.786847-31.980221-71.852695-71.266789-0.030908-19.032518 7.362788-36.938915 20.822486-50.421458 13.614237-13.637082 31.792086-21.14769 51.18206-21.149034l0.693411 0.002688c38.832357 0.364175 70.293863 32.601065 70.129918 71.858069-0.173353 39.137404-32.004409 70.976524-70.956367 70.976524v1.34382z"  horiz-adv-x="1024" />

    
    <glyph glyph-name="tucengguanli1" unicode="&#58949;" d="M819.199488 782.208071H102.399936v-682.623573H0V896h819.199488v-113.791929zM204.799872 604.608182c0 35.199978 29.183982 63.80796 64.25596 63.80796h690.687568A63.93596 63.93596 0 0 0 1023.99936 604.608182v-668.799582c0-35.199978-29.183982-63.80796-64.25596-63.80796H269.055832a63.93596 63.93596 0 0 0-64.25596 63.80796V604.608182z"  horiz-adv-x="1024" />

    
    <glyph glyph-name="liuyan" unicode="&#59073;" d="M208.00475 457.138204a73.138204 69.327679 90 1 1 138.655358 0 73.138204 69.327679 90 1 1-138.655358 0ZM762.658751 457.138204a73.138204 69.338535 90 1 1 138.67707 0 73.138204 69.338535 90 1 1-138.67707 0ZM971.076036 896H138.253679C62.021458 896 0 830.233154 0 749.093932v-583.889742c0-80.932954 61.880327-146.906068 138.253679-146.906069h277.744964l138.666214-146.298121 138.666215 146.287265h277.744964c76.232221 0 138.253679 65.777702 138.253679 146.906069V749.093932C1109.329715 830.037742 1047.438531 896 971.076036 896z m68.915143-730.806666c0-40.808447-31.037869-73.767864-68.915143-73.767864H664.616428l-20.311946-21.462703-89.672193-94.448921 49.059158-51.762351-49.156864 51.653789 0.097706 0.108562-89.607057 94.448921-20.311946 21.419278H138.253679c-37.877274 0-68.926 33.024554-68.926 73.767864V749.093932c0 40.808447 31.037869 73.767864 68.926 73.767864h832.822357c37.877274 0 68.915144-33.024554 68.915143-73.767864v-583.889742zM485.326322 457.138204a73.138204 69.338535 90 1 1 138.677071 0 73.138204 69.338535 90 1 1-138.677071 0Z"  horiz-adv-x="1109" />

    
    <glyph glyph-name="mima" unicode="&#58899;" d="M490.057143 319.59365121999997c-36.571429 0-65.828571-29.257143-65.828572-65.828572 0-18.28571399 7.31428601-36.571429 21.942858-51.2v-62.171428c0-25.6 18.28571399-43.88571399 43.885714-43.88571499s43.88571399 18.28571399 43.885714 43.88571499V202.56507922000003c14.628571 10.971429 21.942857 29.257143 21.94285701 51.2 3.657143 36.571429-29.257143 65.828571-65.82857101 65.828572z m314.514286 197.485714h-43.88571499v109.714286c0 146.28571401-120.68571401 266.971429-266.971428 266.971428S223.08571401 776.73650822 223.08571401 630.4507932199999v-109.714285H179.2c-62.171429 0-109.71428601-51.2-109.71428601-109.714286V-16.863491780000004c0-62.171429 51.2-109.71428601 109.71428601-109.714286h621.71428599c62.171429 0 109.71428601 51.2 109.71428501 109.71428601V407.36507922c3.657143 62.171429-47.542857 109.71428601-106.057142 109.714286z m-314.514286 336.457143c124.342857 0 223.08571401-98.742857 223.085714-223.085715v-109.714285H270.628571v109.714285c0 124.342857 98.742857 223.08571401 219.428572 223.085715zM870.4-16.863491780000004c0-36.571429-29.257143-65.828571-65.828571-65.82857199H182.857143c-36.571429 0-65.828571 29.257143-65.828572 65.828572V407.36507922c0 36.571429 29.257143 65.828571 65.828572 65.828572h621.714286c36.571429 0 65.828571-29.257143 65.828571-65.828572V-16.863491780000004z m0 1e-8"  horiz-adv-x="1024" />

    
    <glyph glyph-name="shujuzhongxin" unicode="&#58992;" d="M128 832h768a64 64 0 0 0 64-64v-512a64 64 0 0 0-64-64H128a64 64 0 0 0-64 64V768a64 64 0 0 0 64 64z m0-96v-448a32 32 0 0 1 32-32h704a32 32 0 0 1 32 32V736a32 32 0 0 1-32 32H160a32 32 0 0 1-32-32z m96-224h64v-192h-64V512z m128 160h64v-352h-64V672z m128-96h64v-256h-64V576z m128 32h64v-288h-64V608z m128-128h64v-160h-64V480zM384 192h64v-192h-64V192z m192 0h64v-192h-64V192zM256 0h512a32 32 0 0 0 0-64H256a32 32 0 0 0 0 64z"  horiz-adv-x="1024" />

    
    <glyph glyph-name="gengduo" unicode="&#58913;" d="M512-128c-281.6 0-512 230.4-512 512s230.4 512 512 512 512-230.4 512-512-230.4-512-512-512zM512 832C262.4 832 64 633.6 64 384s198.4-448 448-448 448 198.4 448 448-198.4 448-448 448zM249.6 384m-64 0a64 64 0 1 1 128 0 64 64 0 1 1-128 0ZM512 384m-64 0a64 64 0 1 1 128 0 64 64 0 1 1-128 0ZM780.8 384m-64 0a64 64 0 1 1 128 0 64 64 0 1 1-128 0Z"  horiz-adv-x="1024" />

    
    <glyph glyph-name="pdf" unicode="&#59386;" d="M897.463 609.096L703.625 816.458A61.651 61.651 0 0 1 658.382 836H134.834C121.137 836 110.028 824.921 110 811.234v-854.468c0.028-13.687 11.137-24.766 24.834-24.766h754.584c13.61 0.11 24.582 11.166 24.582 24.766V567.05a61.572 61.572 0 0 1-16.537 42.046z m-33.732-621.588a6.131 6.131 0 0 0-6.084-6.178H166.856a6.13 6.13 0 0 0-6.133 6.127v0.051l0.604 791.778a6.131 6.131 0 0 0 6.084 6.178h463.022a5.025 5.025 0 0 0 5.026-5.024v-213.642c0-13.677 11.094-24.766 24.782-24.766h198.16a5.025 5.025 0 0 0 5.026-5.024v-549.202l0.304-0.298zM754.698 276.953a100.233 100.233 0 0 1-67.26 16.075 563.472 563.472 0 0 1-75.102-5.425l-1.206 0.653a156.193 156.193 0 0 0-31.568 22.002 254.893 254.893 0 0 0-62.385 95.443 86.576 86.576 0 0 1 1.911 9.143 623.979 623.979 0 0 1 11.41 117.446 34.222 34.222 0 0 1-1.961 7.786l-1.758 11.353a39.449 39.449 0 0 1-29.859 28.583h-7.993c-16.083-1.375-29.635-12.558-34.032-28.08a345.692 345.692 0 0 1 17.191-154.769l-3.872-10.7c-12.316-29.437-27.144-59.778-41.42-87.456l-1.66-3.768c-12.064-23.861-23.625-44.708-33.882-62.893l-4.575-8.088-11.058-5.525s-22.419-11.402-27.046-15.069a151.454 151.454 0 0 1-76.962-79.017c-3.243-9.866 0.706-20.669 9.551-26.121l11.812-6.178a37.658 37.658 0 0 1 18.449-4.622c31.67 0 67.362 37.273 115.618 120.56A1071.61 1071.61 0 0 0 595.44 247.87a303.571 303.571 0 0 1 126.678-39.332 59.79 59.79 0 0 1 16.188 1.909 30.158 30.158 0 0 1 17.795 12.358 56.686 56.686 0 0 1 6.486 38.429 21.745 21.745 0 0 1-8.143 15.721h0.254z m-449.452-161.45a211.016 211.016 0 0 0 58.614 70.026c1.66 1.708 6.836 6.229 11.361 10.749a209.1 209.1 0 0 0-70.227-80.775h0.252z m191.02 424.12a87.217 87.217 0 0 0 7.793-39.032 97.214 97.214 0 0 0-5.026-33.907 276.508 276.508 0 0 0-4.121 46.566c-0.11 8.758 0.31 17.515 1.252 26.222l0.102 0.151z m-47.203-290.198c5.026 8.79 9.45 17.331 13.672 25.77 13.574 26.121 24.278 48.877 32.624 69.373a252.083 252.083 0 0 1 56.2-66.006l0.604-0.503a873.375 873.375 0 0 1-103.198-28.633h0.098z m275.825-5.024a134.382 134.382 0 0 0-46.047 11.603h8.447a115.67 115.67 0 0 0 38.607-4.32 19.013 19.013 0 0 0 11.561-5.727 55.83 55.83 0 0 0-12.665-1.554l0.097-0.002z"  horiz-adv-x="1024" />

    
    <glyph glyph-name="daoru" unicode="&#58919;" d="M512.3 639.6v-256h256v80H648.2l276.2 276.1-56.6 56.6-275.5-275.5V639.6zM847 383.8v-334.6l-0.1-0.1H177.2l-0.1 0.1V718.9l0.1 0.1h335.2V799H177c-44 0-80-36-80-80v-670c0-44 36-80 80-80h670c44 0 80 36 80 80V383.8h-80z"  horiz-adv-x="1024" />

    
    <glyph glyph-name="xiala" unicode="&#58886;" d="M919.8 514.9L555.2 116.2a57.377 57.377 0 0 0-43.1-19.5c-16.5 0-32.2 7.1-43.1 19.5L104.4 514.9c-17.8 18.8-23.3 46.2-14.1 70.4s31.4 41.1 57.2 43.4h728.9c25.9-2.2 48.2-19 57.4-43.3 9.3-24.3 3.8-51.6-14-70.5z"  horiz-adv-x="1024" />

    
    <glyph glyph-name="xinxiluru" unicode="&#58890;" d="M984.612 827.226l-357.484-359.23a35.782 35.782 0 0 0-25.413-10.55 35.79 35.79 0 0 0-25.42 10.55 36.251 36.251 0 0 0 0 51.078L933.78 878.304a35.84 35.84 0 0 0 50.832 0c14.033-14.2 14.033-36.98 0-51.078zM237.554 457.353c-19.918 0-36.013 16.261-36.013 36.186 0 20.019 16.189 36.186 36.013 36.186h215.79c19.816 0 36.005-16.268 36.005-36.186 0-20.018-16.189-36.186-36.005-36.186h-215.79z m467.585-180.65c0-20.018-16.095-36.193-36.013-36.193H237.554c-19.918 0-36.013 16.175-36.013 36.194a36.2 36.2 0 0 0 36.013 36.186h431.572c19.918 0 36.013-16.175 36.013-36.186z m-36.013 469.858H165.628c-19.823 0-36.013-16.269-36.013-36.186v-722.793c0-20.011 16.19-36.186 36.013-36.186h647.255c19.925 0 36.02 16.276 36.02 36.186V565.818c0 20.018 16.089 36.186 36.006 36.186 19.925 0 36.013-16.269 36.013-36.186v-578.135c0-59.853-48.474-108.465-107.938-108.465H165.628c-59.565 0-107.945 48.705-107.945 108.465V710.476c0 59.853 48.481 108.464 107.945 108.464h503.498c19.918 0 36.013-16.167 36.013-36.186s-16.095-36.193-36.013-36.193z"  horiz-adv-x="1024" />

    
    <glyph glyph-name="gongsimingcheng-" unicode="&#58897;" d="M185.745753 673.173216h146.177343v-108.051303H185.745753V673.173216z m218.202944 0h146.187664v-108.051303H403.948697V673.173216zM185.745753 490.995973h146.177343v-108.046142H185.745753V490.995973z m218.202944 0h146.187664v-108.046142H403.948697V490.995973z m362.279949 0h72.025601v-108.046142h-72.025601V490.995973z m0-180.071743h72.025601v-108.077106h-72.025601v108.077106z m-580.482893 0h146.177343v-108.077106H185.745753v108.077106z m218.202944 0h146.187664v-108.077106H403.948697v108.077106z m580.503535-328.416512V637.157835h-290.259508V855.381421H39.547768V-15.350659H3.537547v-72.025602h1016.930066V-15.350659h-36.015381v-2.141623z m-872.878863 0V783.35582h508.493416V-15.350659H111.573369v-2.141623z m582.619355 0V565.127073h218.233907V-15.350659h-218.233907v-2.141623z m0 0"  horiz-adv-x="1024" />

    
    <glyph glyph-name="shoucang" unicode="&#59640;" d="M752-43.2c-9.6 0-20.8 3.2-30.4 8l-208 104-209.6-104c-20.8-11.2-48-9.6-67.2 4.8-19.2 14.4-30.4 40-25.6 64l43.2 224L89.6 411.2C72 428.8 65.6 456 72 478.4c8 24 27.2 41.6 52.8 44.8l228.8 41.6 102.4 208c11.2 22.4 33.6 36.8 57.6 36.8s48-14.4 57.6-36.8l102.4-208 228.8-40c24-3.2 44.8-20.8 51.2-44.8 8-24 1.6-49.6-16-67.2L772.8 257.6l41.6-224c4.8-25.6-6.4-49.6-25.6-64-9.6-8-22.4-12.8-36.8-12.8z"  horiz-adv-x="1024" />

    
    <glyph glyph-name="tupian1" unicode="&#58912;" d="M985.6 57.60000001000003c0-44.8-38.4-76.8-76.8-76.8H115.2c-44.8 0-76.8 38.4-76.8 76.8V652.80000001c0 44.8 38.4 76.8 76.8 76.8h793.6c44.8 0 76.8-38.4 76.8-76.8v-595.2zM115.2 672.00000001c-6.4 0-6.4 0-12.8-6.4 0 0-6.4-6.4-6.4-12.8v-601.6c0-6.4 6.4-12.8 12.8-12.8h793.6c6.4 0 12.8 6.4 12.8 12.8V652.80000001c0 6.4-6.4 12.8-12.8 12.8L115.2 672.00000001z m140.8-256c-51.2 0-89.6 44.8-89.6 96s44.8 96 96 96c25.6 0 51.2-12.8 64-25.6 19.2-19.2 25.6-44.8 25.6-64 0-57.6-38.4-102.4-96-102.4z m601.6-313.6H166.4V198.40000000999999L320 358.40000001l76.8-76.8 256 249.6 204.8-204.8v-224z m0 0"  horiz-adv-x="1024" />

    
    <glyph glyph-name="shangla" unicode="&#58887;" d="M104.2 231.76666666999995L468.8 630.46666667a57.377 57.377 0 0 0 43.1 19.5c16.5 0 32.2-7.1 43.1-19.5L919.6 231.76666666999995c17.8-18.8 23.3-46.2 14.1-70.4s-31.4-41.1-57.2-43.4l-728.9 1e-8c-25.9 2.2-48.2 19-57.4 43.29999999-9.3 24.3-3.8 51.6 14 70.5z"  horiz-adv-x="1024" />

    
    <glyph glyph-name="yuding" unicode="&#59099;" d="M845.813 804.08h-59.65c-10.882 36.861-45.033 63.84-85.373 63.84H323.21c-40.34 0-74.491-26.98-85.372-63.841h-59.651C113.019 804.08 60 751.061 60 685.892v-667.625c0-65.169 53.019-118.188 118.187-118.188h667.625c65.169 0 118.188 53.019 118.188 118.188V685.892c0 65.169-53.019 118.188-118.187 118.188zM294.21 778.92c0 15.991 13.009 29 29 29h377.58c15.99 0 29-13.009 29-29v-9.682c0-15.991-13.01-29-29-29H323.21c-15.99 0-29 13.009-29 29v9.682zM904 18.267c0-32.085-26.103-58.188-58.188-58.188H178.187c-32.084 0-58.187 26.103-58.187 58.188V685.892c0 32.084 26.103 58.188 58.187 58.188h59.65c10.881-36.861 45.033-63.841 85.373-63.841h377.58c40.34 0 74.492 26.98 85.373 63.841h59.649c32.085 0 58.188-26.103 58.188-58.188v-667.625zM425.954 244.102L318.449 351.606l-42.427-42.425 149.932-149.933 322.024 322.023-42.426 42.427z"  horiz-adv-x="1024" />

    
    <glyph glyph-name="lianxiren" unicode="&#58985;" d="M232.964 243.982H65.543v-55.807h167.421v55.807z m83.711-31.882v-62.184l27.903-17.549h390.65l27.903 27.904V212.1c0 63.982-55.398 115.838-123.768 115.838H440.414c-68.341-0.001-123.739-51.856-123.739-115.838z m56.025-16.649c0 47.496 27.413 76.625 83.602 76.625h167.203c55.317 0 83.602-30.709 83.602-76.625v-7.059H372.7v7.059z m0-62.838h334.406v-0.137H372.7v0.137zM232.964 578.825H65.543v-55.807h167.421v55.807z m0-167.421H65.543v-55.808h167.421v55.808z m306.939-55.589c77.062 0 139.518 62.429 139.518 139.409 0 77.007-62.456 139.409-139.518 139.409s-139.518-62.401-139.518-139.409c0-76.98 62.456-139.409 139.518-139.409z m0 223.037c46.216 0 83.656-37.468 83.656-83.656 0-46.215-37.44-83.656-83.656-83.656-46.215 0-83.656 37.441-83.656 83.656 0 46.188 37.441 83.656 83.656 83.656zM874.746 829.956H205.06c-46.215 0-83.71-37.468-83.71-83.71v-111.614h55.807V746.246c0 15.423 12.48 27.904 27.903 27.904h669.685c15.423 0 27.903-12.481 27.903-27.904v-725.492c0-15.424-12.48-27.904-27.903-27.904H205.06c-15.423 0-27.903 12.481-27.903 27.904V132.367H121.35v-111.613c0-46.242 37.495-83.711 83.71-83.711h669.685c46.215 0 83.711 37.469 83.711 83.711V746.246c0 46.243-37.496 83.71-83.71 83.71z"  horiz-adv-x="1024" />

    
    <glyph glyph-name="chanpintese" unicode="&#58952;" d="M862 884H162C93 884 37 828 37 759v-750c0-69 56-125 125-125h700c69 0 125 56 125 125V759c0 69-56 125-125 125z m62.5-875c0-34.5-28-62.5-62.5-62.5H162c-34.5 0-62.5 28-62.5 62.5V759c0 34.5 28 62.5 62.5 62.5h700c34.5 0 62.5-28 62.5-62.5v-750zM799.7 504.2l-199.3 25.2-92.3 178.5L422.6 526l-198.2-32.6 146.5-137.5-30.3-198.6 176 96.8L696.1 164l-37.7 197.3 141.3 142.9zM539 298.8c-7.1 3.5-14.8 5.3-22.4 5.3-8.3 0-16.6-2.1-24.1-6.2l-87.3-48 15 98.5c2.5 16.3-3.2 32.7-15.2 44l-72.6 68.2 98.3 16.2c16.2 2.7 30.1 13.2 37.1 28.1l42.4 90.1 45.7-88.5c7.6-14.6 21.8-24.6 38.2-26.6l98.8-12.5-70-70.8c-11.6-11.7-16.6-28.4-13.5-44.5l18.7-97.8-89.1 44.5zM702.8 101.9h-375c-11.5 0-20.8-9.3-20.8-20.8s9.3-20.8 20.8-20.8h375c11.5 0 20.8 9.3 20.8 20.8s-9.3 20.8-20.8 20.8z"  horiz-adv-x="1024" />

    
    <glyph glyph-name="shouji" unicode="&#58889;" d="M776.055455 896H246.988789A96.256 96.256 0 0 1 153.122122 796.330667v-824.661334a96.256 96.256 0 0 1 93.866667-99.669333h529.066666a96.256 96.256 0 0 1 93.866667 99.669333V796.330667a96.256 96.256 0 0 1-93.866667 99.669333zM268.834122 839.338667H754.210122a64.170667 64.170667 0 0 0 62.464-66.218667v-30.72H206.370122v30.72a64.170667 64.170667 0 0 0 62.464 66.218667z m547.84-154.624v-505.514667H206.370122V684.714667zM754.210122-71.338667H268.834122a64.170667 64.170667 0 0 0-62.464 66.218667v128h610.304v-128a64.170667 64.170667 0 0 0-62.464-66.218667zM460.322122 22.528a55.978667 55.978667 0 0 1 14.677333-37.888 48.469333 48.469333 0 0 1 71.338667 0 55.978667 55.978667 0 0 1 0 75.776 48.469333 48.469333 0 0 1-71.338667 0 55.978667 55.978667 0 0 1-14.677333-37.888z"  horiz-adv-x="1024" />

    
    <glyph glyph-name="caogao" unicode="&#59418;" d="M954.01152 476.608a35.136 35.136 0 0 1-49.6-49.6l42.432-42.56-113.92-0.384V763.904a64 64 0 0 1-64 64l-512 0.448a64 64 0 0 1-64.064-64v-379.904H87.77152l42.048 41.984a35.328 35.328 0 1 1-49.984 49.92L13.85152 410.496c-7.04-7.04-13.824-16.64-13.312-26.432V0a64 64 0 0 1 64-64h896a64 64 0 0 1 64 64V384.064c0 4.48 0 9.152-6.208 19.136-4.096 6.592-25.6 31.104-64.32 73.408zM256.66752 770.944l512.64-0.448v-386.88l-512.64 0.448V770.944zM961.17952 0.128H64.53952V318.976h896.512v-318.848zM666.13952 704c21.184 0 38.4-14.336 38.4-32s-17.216-32-38.4-32H358.93952c-21.184 0-38.4 14.336-38.4 32s17.216 32 38.4 32h307.2z m0-129.152c21.184 0 38.4-14.336 38.4-32s-17.216-32-38.4-32H358.93952c-21.184 0-38.4 14.336-38.4 32s17.216 32 38.4 32h307.2z"  horiz-adv-x="1024" />

    
    <glyph glyph-name="zhaopian1" unicode="&#58917;" d="M166-23.92h692c34.15 0 63.75 11.4 88.78 36.46s36.42 54.7 36.42 88.88V541.24c0 34.19-11.38 63.81-36.42 88.88s-54.65 36.45-88.78 36.45H748.73l-25 66.1q-10.25 23.93-34.14 41c-15.94 11.39-34.15 18.23-50.08 18.23H389.08c-18.21 0-34.14-6.84-50.08-18.23s-27.31-25.07-34.14-41l-27.31-66.1H166c-34.15 0-63.75-11.38-88.78-36.45S40.8 575.43 40.8 541.24v-439.82c0-34.18 11.38-63.81 36.42-88.88s54.65-36.46 88.78-36.46z m346 560.61c113.81 0 207.14-93.43 207.14-207.39S625.81 121.93 512 121.93 304.86 215.36 304.86 329.3 398.19 536.69 512 536.69z"  horiz-adv-x="1024" />

    
    <glyph glyph-name="gongzuoguanli" unicode="&#58962;" d="M1011.2 72.704V426.496c0 51.2-47.104 93.696-98.304 93.696H563.2L473.6 742.4c-8.704 29.696-29.696 47.104-64 47.104H106.496c-51.2 0-93.696-42.496-93.696-93.696v-623.104c0-51.2 42.496-93.696 93.696-93.696H921.6c51.2-0.512 93.696 42.496 89.6 93.696z m-62.464 235.008v-248.32c0-4.608 0-9.216-4.608-9.216H82.432c-4.608 0-9.216 4.608-9.216 9.216V718.336c0 4.608 4.608 9.216 9.216 9.216h311.296l103.936-257.024c4.608-17.92 22.528-27.136 40.448-27.136H939.52c4.608 0 9.216-4.608 9.216-9.216v-126.464z m-86.528 152.576c-39.424 0-42.496 16.896-42.496 42.496v153.6l-4.096 4.096h-358.4c-25.6 0-42.496 11.776-42.496 37.376s16.896 37.376 42.496 37.376h358.4c51.2 0 79.36-28.16 79.36-79.36v-153.6c-0.512-24.576-20.992-41.984-32.768-41.984zM486.912 244.224c0.512-3.072 0.512-6.656-0.512-10.752-0.512-4.608-2.048-8.704-4.096-13.312-2.048-4.608-4.096-8.192-6.144-11.776-2.56-3.584-5.632-5.632-8.192-7.168-3.072-1.536-5.632-2.56-7.68-2.56-2.56 0-5.12 0.512-7.168 1.536-2.56 1.024-5.632 1.536-9.216 2.048-4.096 0.512-7.168 0.512-11.264 0.512-4.096-0.512-7.68-1.024-11.776-2.56s-7.168-3.584-9.728-6.144c-5.632-6.144-9.728-13.312-10.752-21.504-1.024-7.68 0-15.872 3.584-23.04 2.56-5.12 2.048-10.24-1.024-15.36-1.536-2.048-4.096-4.096-7.168-6.144-3.584-2.048-6.656-4.096-10.752-5.632-4.096-2.048-7.68-3.072-12.288-4.096-4.608-1.024-7.68-1.536-11.264-1.536-2.56 0-4.608 1.024-6.144 2.56-2.048 2.048-3.584 3.584-4.096 5.632h-0.512c-3.072 7.68-7.168 14.848-14.336 19.968-6.656 5.632-14.336 8.192-23.04 8.192-8.192 0-16.384-3.072-23.04-8.192-6.656-5.632-11.776-12.288-14.848-19.456-1.536-3.072-3.072-5.632-5.632-6.656-2.56-1.536-5.632-2.048-8.192-2.048-3.584 0-7.168 0.512-11.776 2.048s-8.704 3.072-13.312 5.12c-4.608 2.048-8.192 4.096-11.776 6.656-3.584 2.56-6.144 5.12-7.68 7.168-1.536 2.048-2.048 4.096-2.048 6.144 0 2.56 1.024 5.632 3.072 9.728 3.072 5.632 4.096 12.288 3.584 19.456-0.512 7.168-4.096 14.336-9.728 20.48-3.584 4.096-7.68 6.144-12.8 7.168-5.12 1.024-9.728 1.536-14.336 1.536-5.632 0-10.752-1.536-16.384-3.072-3.584-1.024-6.656-0.512-10.752 1.024-3.072 1.024-5.632 3.584-7.68 6.656s-4.608 7.68-6.144 12.288c-3.584 7.168-5.632 16.384-5.632 25.6 0.512-6.656 0.512-3.072 1.024 0 1.024 5.632 3.584 8.704 7.168 10.752 7.168 3.072 14.336 7.68 19.968 14.848 5.632 6.656 8.704 14.848 8.704 23.04 0 8.704-3.072 16.384-8.704 23.04-5.632 6.144-12.8 11.264-19.968 14.336-2.56 0.512-4.096 2.56-5.632 5.632s-2.56 5.632-2.56 8.704c0 3.584 0.512 6.656 1.536 10.752 1.024 4.096 2.56 7.68 4.096 11.776s3.584 7.168 5.632 10.24c2.048 3.072 4.608 5.632 6.656 6.656 2.048 1.536 4.096 2.048 5.632 1.536 2.048 0 4.096-1.024 6.144-1.536 7.168-3.072 15.36-4.096 23.552-3.072s15.36 5.12 21.504 10.752c3.072 3.072 5.632 6.656 6.144 11.264 1.536 4.608 2.56 8.704 2.56 13.312 0.512 4.608 0.512 8.192 0 11.776-0.512 3.584-0.512 5.632-1.024 7.168-0.512 1.536-1.024 3.584-1.536 5.632-0.512 2.048 0 4.096 0.512 5.632 1.536 3.584 4.608 6.144 8.192 9.216 4.096 2.56 7.68 5.12 12.8 6.656 4.608 2.048 8.704 3.072 13.312 4.096 4.608 1.024 7.68 1.536 10.24 1.536 3.584 0 5.632-1.024 7.68-3.584 2.048-2.048 3.072-4.608 4.096-6.656 3.072-6.656 7.168-12.8 13.824-17.92 6.144-5.632 13.824-7.68 22.016-7.68 8.704 0 16.384 2.56 23.552 7.168 6.656 5.12 11.776 11.264 14.336 18.432 1.024 2.048 2.56 4.096 5.12 6.144 2.048 2.048 4.608 3.584 6.144 3.584 3.584 0 7.168-0.512 11.264-1.536 4.096-1.024 8.192-2.56 12.288-4.096 7.168-3.584 13.824-8.192 17.92-14.336-4.096 5.12-1.024 1.536 1.024-1.536 1.024-1.536 1.024-4.096 1.024-6.144-0.512-2.048-1.024-4.096-1.536-5.12-3.584-7.168-4.608-15.36-3.072-23.04 1.536-7.68 5.12-15.36 10.752-20.992 5.632-5.632 13.312-9.216 22.016-9.728 8.704-0.512 16.896 1.024 24.576 4.608 2.048 1.536 4.608 2.048 7.168 1.536 3.072-0.512 5.632-1.536 7.168-3.584 4.096-3.584 6.656-8.704 9.728-16.384 3.072-7.168 5.12-14.336 5.632-21.504 0.512-4.608 0-7.68-2.048-9.728-2.048-2.56-4.096-4.096-5.632-5.12-7.68-3.072-14.336-7.68-19.968-14.848-5.632-6.656-8.192-14.848-8.192-23.552 0-8.192 2.56-16.384 6.656-22.528 5.12-6.144 10.752-10.752 17.92-13.824 2.048-1.024 3.584-2.048 4.608-3.072 3.584-3.072 5.632-5.632 6.656-9.216z m-175.104-33.792c11.264 0 22.016 2.048 31.744 6.144 9.728 4.608 18.432 10.24 26.112 17.408 7.168 7.168 13.312 16.384 17.408 26.624 4.608 9.728 6.144 20.48 6.144 31.744s-2.048 22.016-6.144 31.744c-4.608 9.728-10.24 18.432-17.408 26.112-7.168 7.168-16.384 13.312-26.112 17.408s-20.48 6.144-31.744 6.144-22.016-2.048-31.744-6.144-18.432-10.24-26.112-17.408c-7.168-7.168-13.312-16.384-17.408-26.112-4.608-9.728-6.144-20.48-6.144-31.744s2.048-22.016 6.144-31.744c4.608-9.728 10.24-18.432 17.408-26.624 7.168-7.168 16.384-13.312 26.112-17.408 9.728-3.584 20.48-6.144 31.744-6.144z"  horiz-adv-x="1024" />

    
    <glyph glyph-name="xinfeng1" unicode="&#58896;" d="M1088.512 482.9184L583.8592 825.1392 623.0528 882.9184l-33.3056-61.3632c-1.5104 0.0768-3.3792 0.3072-5.6576 0.3072-2.304 0-4.1984-0.2304-5.12-0.3328-0.5376-0.0512-33.6384 61.5168-33.6384 61.5168l38.9632-57.9328L75.008 482.6368l-3.0208-1.6128c0.6144 0.3584-0.5376-0.7936-1.6384-2.5344-0.2048-0.3072-0.512-536.448-0.512-536.448h1024V477.6704c-1.6896 2.7136-2.8672 3.8912-2.2784 3.5584l-3.0464 1.6896zM0 481.28c0 22.272 17.408 49.664 38.912 61.2352L545.3312 883.072c21.4784 11.5456 56.2432 11.52 77.7216-0.1024l501.7856-340.3264c21.4272-11.6224 38.8352-39.0912 38.8352-61.3376v-568.7552c0-22.272-20.3264-40.32-45.44-40.32H45.44C20.3264-127.7952 0-109.7472 0-87.4752V481.28zM1017.2928-57.8304L660.4032 243.8912c-32.256 27.2384-88.5248 28.3392-121.8304 2.4064L151.6288-55.3472l865.664-2.4832zM16.7168-101.504l493.2352 384.512c50.6624 39.4752 131.456 37.888 180.5056-3.5584l454.4-384.1792-1128.1408 3.2256zM1113.1904 495.4112l-371.2-291.0976 28.7232-36.6592 371.2256 291.1232-28.7488 36.6336zM43.8272 458.7776l371.2-291.1232 28.7232 36.6592-371.2 291.0976-28.7232-36.6336z"  horiz-adv-x="1163" />

    
    <glyph glyph-name="feiyong" unicode="&#58939;" d="M609.279 501.76l-92.16-128.001c-5.12-15.358-15.36-25.599-20.48-40.96-5.12 20.48-15.36 30.722-20.479 40.96L384 501.76h-76.8l128-179.2H332.8v-51.199h128v-71.681h-128v-51.199h128v-158.722h71.68V148.48h122.88v51.2h-128v71.68h122.88v51.2h-102.4l133.119 179.2h-71.68zM645.119 896h-588.8v-1024h911.36V593.919L645.119 896z m0-71.68L896 588.8H645.119V824.32zM921.6-81.921H107.52V855.041h491.52V547.84H921.6v-629.761z"  horiz-adv-x="1024" />

    
    <glyph glyph-name="jiahao" unicode="&#59003;" d="M511.886222-2.958222c-24.689778 0-44.942222 20.252444-44.942222 44.942222V724.992c0 24.689778 20.252444 44.942222 44.942222 44.942222s44.942222-20.252444 44.942222-44.942222v-683.008c0-24.803556-20.252444-44.942222-44.942222-44.942222zM125.383111 383.431111c0 24.689778 20.252444 44.942222 44.942222 44.942222H853.333333c24.689778 0 44.942222-20.252444 44.942223-44.942222S878.023111 338.488889 853.333333 338.488889H170.325333c-24.689778 0-44.942222 20.252444-44.942222 44.942222z"  horiz-adv-x="1024" />

    


  </font>
</defs>
</svg>
